<?xml version="1.0" encoding="UTF-8"?>
<svg version="1.1" xmlns="http://www.w3.org/2000/svg" width="512" height="512">
<path d="M0 0 C4.56964892 3.82400012 8.92089744 7.77818862 13.11889648 12.00537109 C13.9689904 12.85524597 13.9689904 12.85524597 14.83625793 13.72229004 C16.68358747 15.57030868 18.52736301 17.42182903 20.37109375 19.2734375 C21.66124403 20.56545552 22.95161724 21.85725096 24.24220276 23.14883423 C27.61944189 26.52987043 30.99366562 29.91390014 34.36724854 33.29858398 C37.81786929 36.75947959 41.27136338 40.21750543 44.72460938 43.67578125 C51.48587186 50.44773144 58.24394899 57.22285083 65 64 C61.46051532 68.24928526 57.84789938 72.23052177 53.78515625 75.99609375 C52.85251953 76.88490234 51.91988281 77.77371094 50.95898438 78.68945312 C49.50289948 80.07091735 48.04642234 81.4522442 46.56713867 82.80883789 C40.79121097 87.69908737 40.79121097 87.69908737 37.54223633 94.21777344 C37.74026069 96.58754647 37.74026069 96.58754647 39 100 C39.24878906 101.03898437 39.49757812 102.07796875 39.75390625 103.1484375 C40.02074219 104.21320313 40.28757813 105.27796875 40.5625 106.375 C46.31163635 134.66754787 40.44271364 162.92753461 25 187 C14.77893113 201.90374461 0.79885339 214.41728935 -11.91455078 227.15478516 C-13.88928616 229.13391897 -15.85912562 231.11773217 -17.82470703 233.10595703 C-43.8442097 259.41863667 -43.8442097 259.41863667 -58.0625 266.75 C-58.75585449 267.11287109 -59.44920898 267.47574219 -60.16357422 267.84960938 C-84.63267048 280.08145134 -114.92726312 282.04948654 -140.88671875 273.78125 C-168.19048518 264.58085231 -189.08093026 246.05433313 -202.72265625 220.8125 C-215.18142631 195.32141035 -217.17586993 164.8477255 -208.04956055 137.9934082 C-198.6602699 111.80353852 -178.58316503 93.39356863 -159.34790039 74.16259766 C-156.91702118 71.73182052 -154.49313395 69.29419591 -152.07089138 66.85481644 C-149.71718155 64.48719495 -147.356178 62.1268922 -144.99609375 59.765625 C-144.14164169 58.90398743 -143.28718964 58.04234985 -142.40684509 57.15460205 C-119.23072263 34.06494762 -92.60159947 22.81283254 -59.99462891 22.74243164 C-52.41552557 22.80133659 -45.51532991 23.39991127 -38.1484375 25.24609375 C-37.10945312 25.49488281 -36.07046875 25.74367188 -35 26 C-33.75299316 26.30035156 -32.50598633 26.60070312 -31.22119141 26.91015625 C-28.74168899 27.20003933 -27.45293063 27.24876725 -25.24911499 26.03834534 C-23.47488137 24.51628042 -21.89712207 22.9100315 -20.3125 21.19140625 C-19.72452637 20.59069809 -19.13655273 19.98998993 -18.53076172 19.37107849 C-16.66492879 17.4550214 -14.8328626 15.5100668 -13 13.5625 C-11.73778405 12.25512398 -10.47348125 10.9497593 -9.20703125 9.64648438 C-6.11335635 6.4537893 -3.04959005 3.23480706 0 0 Z M-105.38671875 107.05078125 C-106.45793552 108.11555166 -107.52929351 109.18018002 -108.6007843 110.24467468 C-110.83220508 112.46420245 -113.05953866 114.68774024 -115.28442383 116.91381836 C-118.11506033 119.74465831 -120.95923136 122.56146334 -123.80710125 125.37495136 C-126.01982146 127.56528406 -128.22323967 129.76480018 -130.42426491 131.96687889 C-131.46827807 133.00855637 -132.51547882 134.04705057 -133.5661068 135.08205605 C-144.05701936 145.43137972 -151.91936584 156.25037394 -152.9921875 171.33984375 C-153.03193718 184.87461119 -147.70048923 196.10963962 -138.421875 205.80859375 C-130.11119086 213.32842246 -119.28496387 218 -108 218 C-89.21264299 216.37074411 -78.38766947 206.70808965 -65.54296875 193.84375 C-64.46703734 192.77171611 -63.39088666 191.69990224 -62.31452942 190.6282959 C-60.07485808 188.39603306 -57.8390306 186.16000542 -55.60571289 183.92138672 C-52.75525677 181.06511459 -49.8935388 178.22042662 -47.02863598 175.37865448 C-44.80910051 173.1738975 -42.59658016 170.96220258 -40.38598061 168.74848938 C-39.33384172 167.69686069 -38.27936533 166.64756484 -37.22243309 165.60075378 C-29.59753687 158.06730528 -29.59753687 158.06730528 -24 149 C-25.670625 149.495 -25.670625 149.495 -27.375 150 C-41.12166475 153.00164515 -54.20760415 151.68267979 -66.375 144.5625 C-69.65329938 142.37251589 -72.35068397 139.93572857 -75 137 C-76.2684375 135.6078125 -76.2684375 135.6078125 -77.5625 134.1875 C-84.01015764 126.27999535 -86.36884179 117.18198652 -86.25 107.125 C-86.24613281 106.33432129 -86.24226563 105.54364258 -86.23828125 104.72900391 C-86.15687659 99.24210368 -85.5653743 94.28313826 -84 89 C-90.86823869 89 -100.61177107 102.28268805 -105.38671875 107.05078125 Z " fill="#6E6E6D" transform="translate(213,234)"/>
<path d="M0 0 C20.31990397 17.35629694 35.68178941 41.49699093 38.35864258 68.59667969 C39.85469701 104.42434646 31.98347077 131.17710716 7.87887573 157.86688232 C3.69298798 162.40083797 -0.6522105 166.77014885 -5.01245117 171.13574219 C-5.98461039 172.11112857 -6.95670054 173.08658379 -7.9287262 174.06210327 C-9.9497538 176.08906009 -11.97277697 178.1140002 -13.99707031 180.13769531 C-16.56476781 182.70529102 -19.12549667 185.27971764 -21.68453884 187.85593605 C-23.68446922 189.86708617 -25.68903111 191.87357236 -27.69484138 193.87885666 C-29.09239125 195.2781268 -30.48541408 196.68191387 -31.87828064 198.08584595 C-55.20594903 221.33112634 -81.77996874 232.78328624 -114.64672852 232.85424805 C-122.22583185 232.7953431 -129.12602751 232.19676842 -136.49291992 230.35058594 C-137.5319043 230.10179687 -138.57088867 229.85300781 -139.64135742 229.59667969 C-140.88836426 229.29632813 -142.13537109 228.99597656 -143.42016602 228.68652344 C-145.89966843 228.39664036 -147.18842679 228.34791243 -149.39224243 229.55833435 C-151.16647605 231.08039927 -152.74423535 232.68664819 -154.32885742 234.40527344 C-154.91683105 235.0059816 -155.50480469 235.60668976 -156.1105957 236.2256012 C-157.97642864 238.14165829 -159.80849483 240.08661289 -161.64135742 242.03417969 C-162.90357337 243.34155571 -164.16787617 244.64692039 -165.43432617 245.95019531 C-168.52800107 249.14289038 -171.59176737 252.36187263 -174.64135742 255.59667969 C-179.21100634 251.77267957 -183.56225486 247.81849107 -187.76025391 243.59130859 C-188.32698318 243.02472534 -188.89371246 242.45814209 -189.47761536 241.87438965 C-191.32494489 240.02637101 -193.16872043 238.17485066 -195.01245117 236.32324219 C-196.30260145 235.03122416 -197.59297467 233.73942873 -198.88356018 232.44784546 C-202.26079931 229.06680925 -205.63502305 225.68277955 -209.00860596 222.2980957 C-212.45922671 218.8372001 -215.91272081 215.37917426 -219.3659668 211.92089844 C-226.12722928 205.14894824 -232.88530641 198.37382885 -239.64135742 191.59667969 C-236.10187274 187.34739443 -232.4892568 183.36615792 -228.42651367 179.60058594 C-227.49387695 178.71177734 -226.56124023 177.82296875 -225.6003418 176.90722656 C-224.1442569 175.52576234 -222.68777976 174.14443549 -221.20849609 172.7878418 C-215.43256839 167.89759232 -215.43256839 167.89759232 -212.18359375 161.37890625 C-212.38161811 159.00913322 -212.38161811 159.00913322 -213.64135742 155.59667969 C-213.89014648 154.55769531 -214.13893555 153.51871094 -214.39526367 152.44824219 C-214.66209961 151.38347656 -214.92893555 150.31871094 -215.20385742 149.22167969 C-220.95299378 120.92913181 -215.08407107 92.66914507 -199.64135742 68.59667969 C-189.49953406 53.80848608 -175.60989531 41.37709767 -162.98925781 28.75927734 C-160.5583786 26.32850021 -158.13449137 23.8908756 -155.7122488 21.45149612 C-153.35853898 19.08387464 -150.99753542 16.72357188 -148.63745117 14.36230469 C-147.78299911 13.50066711 -146.92854706 12.63902954 -146.04820251 11.75128174 C-107.00947765 -27.14179314 -44.34408134 -36.35050042 0 0 Z M-106.0292511 58.68103027 C-107.05262667 59.70466722 -108.07566455 60.72864187 -109.09838867 61.75292969 C-110.17432009 62.82496358 -111.25047076 63.89677745 -112.326828 64.96838379 C-114.56649934 67.20064662 -116.80232682 69.43667426 -119.03564453 71.67529297 C-121.88610065 74.5315651 -124.74781862 77.37625307 -127.61272144 80.21802521 C-129.83225691 82.42278219 -132.04477726 84.63447711 -134.25537682 86.84819031 C-135.3075157 87.899819 -136.3619921 88.94911485 -137.41892433 89.9959259 C-145.04382055 97.52937441 -145.04382055 97.52937441 -150.64135742 106.59667969 C-148.97073242 106.10167969 -148.97073242 106.10167969 -147.26635742 105.59667969 C-133.51969268 102.59503454 -120.43375327 103.91399989 -108.26635742 111.03417969 C-104.98805804 113.2241638 -102.29067345 115.66095112 -99.64135742 118.59667969 C-98.79573242 119.52480469 -97.95010742 120.45292969 -97.07885742 121.40917969 C-90.63119978 129.31668434 -88.27251563 138.41469317 -88.39135742 148.47167969 C-88.39522461 149.2623584 -88.3990918 150.05303711 -88.40307617 150.86767578 C-88.48448083 156.35457601 -89.07598312 161.31354142 -90.64135742 166.59667969 C-85.80652537 164.01969428 -82.08657405 161.42216662 -78.16845703 157.52783203 C-77.42060188 156.79027176 -77.42060188 156.79027176 -76.65763855 156.03781128 C-75.02863618 154.42695288 -73.4107995 152.80541903 -71.79370117 151.18261719 C-70.65258887 150.04607391 -69.51110791 148.90990065 -68.36927795 147.77407837 C-65.98315536 145.39686362 -63.60275654 143.01409294 -61.22607422 140.62744141 C-58.19976848 137.58967278 -55.15794556 134.568006 -52.1113348 131.55061913 C-49.7508689 129.20862306 -47.39991754 126.85724962 -45.05151558 124.50316238 C-43.93478712 123.38628191 -42.81500538 122.2724447 -41.69196892 121.1619072 C-31.03404725 110.60595572 -22.74770308 99.70794367 -21.64916992 84.25683594 C-21.60942024 70.7220685 -26.94086819 59.48704007 -36.21948242 49.78808594 C-59.62496437 28.60989985 -86.23620704 39.00750307 -106.0292511 58.68103027 Z " fill="#6E6E6D" transform="translate(473.641357421875,22.4033203125)"/>
<path d="M0 0 C0.65104151 2.35283375 1.29592122 4.70708449 1.9375 7.0625 C2.21110352 8.04766602 2.21110352 8.04766602 2.49023438 9.05273438 C9.53523563 35.05519357 5.25253596 64.13489207 -7.9375 87.4375 C-18.45979885 105.31995608 -34.36907364 119.58174465 -48.91455078 134.15478516 C-50.88928616 136.13391897 -52.85912562 138.11773217 -54.82470703 140.10595703 C-80.8442097 166.41863667 -80.8442097 166.41863667 -95.0625 173.75 C-95.75585449 174.11287109 -96.44920898 174.47574219 -97.16357422 174.84960938 C-121.63267048 187.08145134 -151.92726312 189.04948654 -177.88671875 180.78125 C-193.63847938 175.47220324 -206.79102258 167.18459404 -219 156 C-217.54131246 152.64000982 -215.69131052 150.44796894 -213.10107422 147.87402344 C-212.3003952 147.07349548 -211.49971619 146.27296753 -210.67477417 145.44818115 C-209.81014557 144.59387512 -208.94551697 143.73956909 -208.0546875 142.859375 C-206.72716965 141.53610199 -206.72716965 141.53610199 -205.37283325 140.18609619 C-203.02549869 137.84805457 -200.67393215 135.51444126 -198.32019043 133.18286133 C-195.91686073 130.80003474 -193.51922233 128.41149652 -191.12109375 126.0234375 C-186.41928533 121.34368138 -181.71181336 116.66968133 -177 112 C-173.97468705 113.48503803 -171.16098977 115.13483256 -168.3125 116.9375 C-156.81649051 123.84859075 -145.99943899 125.13075494 -133 122 C-120.40423908 118.31702897 -111.8370283 109.15197953 -102.796875 100.09765625 C-101.74575901 99.05043868 -100.69442413 98.00344077 -99.6428833 96.95664978 C-97.45448656 94.77566098 -95.2699336 92.59090931 -93.08789062 90.40356445 C-90.30703012 87.61689478 -87.51492701 84.84179882 -84.71961594 82.06963444 C-82.55063979 79.91546131 -80.38870579 77.75432479 -78.22867584 75.59118462 C-77.20248367 74.56550164 -76.17396311 73.54214218 -75.14296722 72.52128792 C-68.62398742 66.19826648 -68.62398742 66.19826648 -63.52050781 58.74780273 C-61.00752012 54.31842815 -57.27986862 52.51296383 -52.98635864 49.9682312 C-47.48452997 46.34211922 -43.06966346 41.51538827 -38.49609375 36.81640625 C-37.44147406 35.74921101 -36.38579417 34.68306256 -35.32911682 33.61790466 C-32.58076818 30.84323758 -29.84387678 28.05757526 -27.11029053 25.26837158 C-22.7071797 20.77818497 -18.28972386 16.3022019 -13.86616707 11.83216667 C-12.32685225 10.27240725 -10.79452602 8.70601918 -9.26280212 7.1388092 C-8.3374617 6.20040695 -7.41212128 5.2620047 -6.45874023 4.29516602 C-5.64364487 3.46356461 -4.8285495 2.6319632 -3.98875427 1.77516174 C-2 0 -2 0 0 0 Z " fill="#5A5A5A" transform="translate(250,327)"/>
<path d="M0 0 C11.38328395 5.14409352 19.38476768 21.95453067 24 33 C34.25566735 60.98053671 34.4359851 91.68183053 22 119 C13.65483374 135.99269361 0.89279755 149.25888835 -12.37109375 162.5390625 C-13.34325297 163.51444888 -14.31534312 164.4899041 -15.28736877 165.46542358 C-17.30839638 167.49238041 -19.33141955 169.51732051 -21.35571289 171.54101562 C-23.92341039 174.10861133 -26.48413925 176.68303795 -29.04318142 179.25925636 C-31.0431118 181.27040648 -33.04767369 183.27689267 -35.05348396 185.28217697 C-36.45103383 186.68144711 -37.84405665 188.08523418 -39.23692322 189.48916626 C-62.55521454 212.72510271 -89.14258065 224.20498897 -122.00317383 224.25537109 C-133.24070668 224.1624794 -143.24301336 222.11208418 -154 219 C-152.47593765 215.38693781 -150.34166875 213.12145064 -147.55371094 210.39013672 C-146.63225281 209.48174042 -145.71079468 208.57334412 -144.76141357 207.63742065 C-144.26849571 207.15598476 -143.77557785 206.67454887 -143.26772308 206.17852402 C-141.71457164 204.66032986 -140.16876384 203.13500301 -138.62481689 201.60745239 C-134.23473814 197.26609628 -129.83382707 192.93585401 -125.42333984 188.61523438 C-122.72148288 185.96742354 -120.02984436 183.30956013 -117.34394073 180.64557266 C-116.32562721 179.63955511 -115.3035507 178.63733002 -114.27745819 177.63924789 C-109.4640194 172.95594387 -105.11890245 168.60571469 -101.88769531 162.68017578 C-99.40844844 158.20417159 -96.84596933 156.26735465 -92.5105896 153.67321777 C-87.20977929 150.14041814 -82.87696765 145.32720535 -78.39453125 140.828125 C-77.30111576 139.7392828 -76.20733316 138.65080914 -75.11320496 137.56268311 C-72.83320312 135.29156404 -70.55889048 133.01493172 -68.28833008 130.734375 C-65.39885215 127.8334087 -62.49381821 124.94860842 -59.58405018 122.06801224 C-57.32481143 119.82724481 -55.07509167 117.57710169 -52.8279171 115.32424164 C-51.76142793 114.25760061 -50.69189264 113.19399513 -49.61908913 112.13370514 C-39.07263038 101.69306145 -31.08902412 90.86763274 -30.0078125 75.66015625 C-29.97229937 63.56793585 -34.27060711 53.21838849 -42 44 C-40.54131246 40.64000982 -38.69131052 38.44796894 -36.10107422 35.87402344 C-35.3003952 35.07349548 -34.49971619 34.27296753 -33.67477417 33.44818115 C-32.37783127 32.16672211 -32.37783127 32.16672211 -31.0546875 30.859375 C-30.1696756 29.97719299 -29.2846637 29.09501099 -28.37283325 28.18609619 C-26.02549869 25.84805457 -23.67393215 23.51444126 -21.32019043 21.18286133 C-18.91686073 18.80003474 -16.51922233 16.41149652 -14.12109375 14.0234375 C-9.41928533 9.34368138 -4.71181336 4.66968133 0 0 Z " fill="#5A5A5A" transform="translate(481,31)"/>
<path d="M0 0 C4.56964892 3.82400012 8.92089744 7.77818862 13.11889648 12.00537109 C13.9689904 12.85524597 13.9689904 12.85524597 14.83625793 13.72229004 C16.68358747 15.57030868 18.52736301 17.42182903 20.37109375 19.2734375 C21.66124403 20.56545552 22.95161724 21.85725096 24.24220276 23.14883423 C27.61944189 26.52987043 30.99366562 29.91390014 34.36724854 33.29858398 C37.81786929 36.75947959 41.27136338 40.21750543 44.72460938 43.67578125 C51.48587186 50.44773144 58.24394899 57.22285083 65 64 C61.43522245 68.23858227 57.79932145 72.32822793 53.8828125 76.25 C53.42196259 76.71180664 52.96111267 77.17361328 52.48629761 77.64941406 C51.52122562 78.61515943 50.55491842 79.57967197 49.58740234 80.54296875 C48.1313326 81.99369065 46.68067224 83.44966659 45.23046875 84.90625 C44.28157029 85.85448729 43.33236148 86.80241413 42.3828125 87.75 C41.54121582 88.59046875 40.69961914 89.4309375 39.83251953 90.296875 C37.68619333 92.3451532 35.52343315 94.28464103 33.27392578 96.21289062 C28.33407975 100.50302225 23.8026863 105.16491245 19.234375 109.84375 C17.83624699 111.26216751 16.43810253 112.6805692 15.03905106 114.09807587 C11.63014551 117.55220758 8.22533397 121.01014551 4.83740234 124.48486328 C2.92543064 126.44517457 1.00665708 128.39834242 -0.91986084 130.34436035 C-2.71998983 132.16300342 -4.51061631 133.99112327 -6.28961182 135.83044434 C-15.56065369 145.14155663 -26.01875541 152.11300458 -39.45751953 152.38012695 C-51.33288401 152.35356863 -60.20732815 149.94021927 -70 143 C-70.86625 142.401875 -71.7325 141.80375 -72.625 141.1875 C-80.82204647 133.63758878 -86.81841866 122.95585467 -87.30078125 111.6953125 C-87.32024963 110.17199439 -87.32374044 108.64840104 -87.3125 107.125 C-87.30686035 106.32779541 -87.3012207 105.53059082 -87.29541016 104.70922852 C-86.89929055 85.55233513 -72.45320009 73.25863278 -59.6171875 60.5546875 C-58.75868195 59.69996857 -57.90017639 58.84524963 -57.01565552 57.96463013 C-54.30455158 55.26561157 -51.59020716 52.56989027 -48.875 49.875 C-45.28610505 46.31285458 -41.70064393 42.74730303 -38.1171875 39.1796875 C-37.30659882 38.37739716 -36.49601013 37.57510681 -35.66085815 36.74850464 C-31.46040206 32.56603883 -27.44535735 28.30027976 -23.57983398 23.80691528 C-21.32328045 21.22601051 -18.93564356 18.82359834 -16.50390625 16.40625 C-16.02549789 15.92925659 -15.54708954 15.45226318 -15.05418396 14.96081543 C-13.55933486 13.47146305 -12.06100941 11.98566851 -10.5625 10.5 C-9.5342702 9.47679861 -8.50627374 8.45336267 -7.47851562 7.4296875 C-4.98835662 4.95042001 -2.49507167 2.47432462 0 0 Z " fill="#FED300" transform="translate(213,234)"/>
<path d="M0 0 C1.21786705 0.81933738 2.42743381 1.65126617 3.625 2.5 C4.49125 3.098125 5.3575 3.69625 6.25 4.3125 C14.44658016 11.86198172 20.37186204 22.49242841 20.9609375 33.734375 C21.26826799 49.02364718 17.65546871 59.62612722 7.23242188 71.14385986 C4.49363495 73.95982915 1.71067988 76.72642114 -1.09375 79.4765625 C-2.12146584 80.49611301 -3.14842855 81.51642319 -4.17468262 82.53744507 C-6.85500263 85.2008095 -9.54378501 87.85544876 -12.23504639 90.50775146 C-16.54246787 94.75553691 -20.83702262 99.0163191 -25.13087463 103.27781296 C-26.61630748 104.74948987 -28.10559923 106.21716529 -29.59558105 107.68423462 C-34.19586325 112.23560664 -38.64245946 116.83122762 -42.85147095 121.74691772 C-45.08336004 124.31509009 -47.45769769 126.69463439 -49.87109375 129.09375 C-50.34950211 129.57074341 -50.82791046 130.04773682 -51.32081604 130.53918457 C-52.81566514 132.02853695 -54.31399059 133.51433149 -55.8125 135 C-56.8407298 136.02320139 -57.86872626 137.04663733 -58.89648438 138.0703125 C-61.38664338 140.54957999 -63.87992833 143.02567538 -66.375 145.5 C-70.94464892 141.67599988 -75.29589744 137.72181138 -79.49389648 133.49462891 C-80.06062576 132.92804565 -80.62735504 132.3614624 -81.21125793 131.77770996 C-83.05858747 129.92969132 -84.90236301 128.07817097 -86.74609375 126.2265625 C-88.03624403 124.93454448 -89.32661724 123.64274904 -90.61720276 122.35116577 C-93.99444189 118.97012957 -97.36866562 115.58609986 -100.74224854 112.20141602 C-104.19286929 108.74052041 -107.64636338 105.28249457 -111.09960938 101.82421875 C-117.86087186 95.05226856 -124.61894899 88.27714917 -131.375 81.5 C-127.81022245 77.26141773 -124.17432145 73.17177207 -120.2578125 69.25 C-119.56653763 68.55729004 -119.56653763 68.55729004 -118.86129761 67.85058594 C-117.89622562 66.88484057 -116.92991842 65.92032803 -115.96240234 64.95703125 C-114.5063326 63.50630935 -113.05567224 62.05033341 -111.60546875 60.59375 C-110.65657029 59.64551271 -109.70736148 58.69758587 -108.7578125 57.75 C-107.91621582 56.90953125 -107.07461914 56.0690625 -106.20751953 55.203125 C-104.05422001 53.14819204 -101.88337349 51.19879174 -99.62817383 49.26196289 C-94.82762547 45.09284296 -90.39582969 40.59147937 -85.94140625 36.05859375 C-84.14026729 34.23994382 -82.33882576 32.4215935 -80.53710938 30.60351562 C-77.7319021 27.76736044 -74.92857791 24.92946557 -72.1315918 22.08520508 C-69.40838575 19.31946014 -66.67564338 16.56342806 -63.94140625 13.80859375 C-63.1161293 12.96469589 -62.29085236 12.12079803 -61.44056702 11.25132751 C-44.20378198 -6.06041289 -22.16308708 -13.25680949 0 0 Z " fill="#FED300" transform="translate(365.375,132.5)"/>
<path d="M0 0 C0.66 0 1.32 0 2 0 C11.7893314 10.51653887 14.62888986 22.58481147 14.30859375 36.546875 C13.5269138 51.97289087 2.74502901 62.71534268 -7.71875 72.9765625 C-8.74646584 73.99611301 -9.77342855 75.01642319 -10.79968262 76.03744507 C-13.48000263 78.7008095 -16.16878501 81.35544876 -18.86004639 84.00775146 C-23.16746787 88.25553691 -27.46202262 92.5163191 -31.75587463 96.77781296 C-33.24130748 98.24948987 -34.73059923 99.71716529 -36.22058105 101.18423462 C-40.82086325 105.73560664 -45.26745946 110.33122762 -49.47647095 115.24691772 C-51.70836004 117.81509009 -54.08269769 120.19463439 -56.49609375 122.59375 C-57.21370628 123.30924011 -57.21370628 123.30924011 -57.94581604 124.03918457 C-59.44066514 125.52853695 -60.93899059 127.01433149 -62.4375 128.5 C-63.4657298 129.52320139 -64.49372626 130.54663733 -65.52148438 131.5703125 C-68.01164338 134.04957999 -70.50492833 136.52567538 -73 139 C-80.11905227 133.19316781 -86.47374812 126.63714556 -92.9375 120.125 C-94.10979204 118.94768362 -95.28231614 117.77059826 -96.45507812 116.59375 C-99.30606982 113.73182511 -102.15389615 110.86678543 -105 108 C-103.51256733 104.54086927 -101.55266493 102.30773089 -98.89390564 99.66012573 C-97.60458382 98.36884766 -97.60458382 98.36884766 -96.28921509 97.05148315 C-95.33474419 96.10568468 -94.38018179 95.15997853 -93.42553711 94.21435547 C-92.42151454 93.2125347 -91.41793977 92.21026495 -90.41477966 91.20758057 C-88.25579551 89.05152764 -86.09369501 86.89866697 -83.92912102 84.74822617 C-80.50853483 81.34990647 -77.09505124 77.94451234 -73.68251038 74.53811646 C-68.28661657 69.15360029 -62.88606946 63.7737792 -57.48347908 58.39598286 C-47.8015624 48.7584184 -38.12524763 39.1152372 -28.45410925 29.46685708 C-25.05831538 26.07948537 -21.6597334 22.69494283 -18.25890529 19.31262565 C-16.14758468 17.21192468 -14.03827478 15.10921341 -11.92946815 13.00598907 C-10.94872544 12.02872573 -9.96711171 11.05233564 -8.98458099 10.07686996 C-7.64714389 8.74884154 -6.3130312 7.4174676 -4.97911072 6.08590698 C-4.23044707 5.34076277 -3.48178343 4.59561855 -2.71043301 3.82789421 C-0.93195421 2.10105653 -0.93195421 2.10105653 0 0 Z " fill="#FE9F00" transform="translate(372,139)"/>
<path d="M0 0 C2.83374242 1.36558888 4.89648438 2.64996231 7.11621094 4.88916016 C7.69651062 5.4696109 8.2768103 6.05006165 8.87469482 6.64810181 C9.48838928 7.27211884 10.10208374 7.89613586 10.734375 8.5390625 C11.37240051 9.17991791 12.01042603 9.82077332 12.66778564 10.48104858 C14.69994069 12.52437821 16.72502218 14.57455982 18.75 16.625 C20.1284453 18.0134786 21.50734636 19.4015049 22.88671875 20.7890625 C26.26311894 24.18748697 29.63319288 27.59207254 33 31 C29.43522245 35.23858227 25.79932145 39.32822793 21.8828125 43.25 C21.42196259 43.71180664 20.96111267 44.17361328 20.48629761 44.64941406 C19.52122562 45.61515943 18.55491842 46.57967197 17.58740234 47.54296875 C16.1313326 48.99369065 14.68067224 50.44966659 13.23046875 51.90625 C12.28157029 52.85448729 11.33236148 53.80241413 10.3828125 54.75 C9.54121582 55.59046875 8.69961914 56.4309375 7.83251953 57.296875 C5.68619333 59.3451532 3.52343315 61.28464103 1.27392578 63.21289062 C-3.66592025 67.50302225 -8.1973137 72.16491245 -12.765625 76.84375 C-14.16375301 78.26216751 -15.56189747 79.6805692 -16.96094894 81.09807587 C-20.36985449 84.55220758 -23.77466603 88.01014551 -27.16259766 91.48486328 C-29.07456936 93.44517457 -30.99334292 95.39834242 -32.91986084 97.34436035 C-34.71998983 99.16300342 -36.51061631 100.99112327 -38.28961182 102.83044434 C-47.56065369 112.14155663 -58.01875541 119.11300458 -71.45751953 119.38012695 C-83.55674213 119.35306799 -94.66421054 117.05236123 -103.71875 108.34765625 C-104.1415625 107.90292969 -104.564375 107.45820313 -105 107 C-103.50631485 103.51970879 -101.52082582 101.27381652 -98.84921265 98.60870361 C-97.97980545 97.73654709 -97.11039825 96.86439056 -96.21464539 95.96580505 C-95.24914637 95.0073837 -94.28355173 94.04905867 -93.31787109 93.09082031 C-92.30238106 92.07589455 -91.28733148 91.06052792 -90.27268982 90.04475403 C-87.5190921 87.29058246 -84.75937117 84.54262121 -81.99851561 81.79572773 C-79.11348903 78.923203 -76.23412458 76.04501414 -73.35415649 73.16741943 C-67.90062122 67.72010053 -62.44200771 62.27789998 -56.98155463 56.83751655 C-50.7648666 50.64318262 -44.55385612 44.44316924 -38.34331775 38.24267054 C-25.56852222 25.48878056 -12.78660861 12.742046 0 0 Z " fill="#FE9F00" transform="translate(245,267)"/>
<path d="M0 0 C7.41769854 1.48685793 14.45665896 3.68338191 21.62109375 6.09765625 C23.39275658 6.68914711 23.39275658 6.68914711 25.20021057 7.29258728 C28.3125087 8.33281821 31.42341364 9.37708586 34.53375244 10.42315674 C37.08143766 11.27875619 39.63062386 12.12983089 42.17986965 12.98076725 C45.22341406 13.99699731 48.26601451 15.01604073 51.30859375 16.03515625 C52.45122177 16.41744888 53.59384979 16.79974152 54.77110291 17.19361877 C55.82302322 17.5474614 56.87494354 17.90130402 57.95874023 18.26586914 C58.88645737 18.57738419 59.8141745 18.88889923 60.77000427 19.20985413 C63 20 63 20 65 21 C63.32495527 27.80303253 61.28372819 34.48298255 59.0625 41.125 C58.70164307 42.26279907 58.70164307 42.26279907 58.33349609 43.42358398 C57.59765625 45.5703125 57.59765625 45.5703125 56 49 C52.42981986 50.68991028 49.6628964 49.5239183 46.05395508 48.34106445 C44.85623978 47.95348465 43.65852448 47.56590485 42.42451477 47.1665802 C41.12261533 46.73286178 39.82095961 46.29841116 38.51953125 45.86328125 C37.18257468 45.42258735 35.84547021 44.98234195 34.50822449 44.54252625 C31.70917232 43.61895951 28.91299302 42.68723711 26.1184082 41.75024414 C22.53290232 40.54923565 18.93979152 39.37306293 15.34396839 38.20336628 C12.5821045 37.30115654 9.82543621 36.38385099 7.07004356 35.46208763 C5.7468433 35.021929 4.42188814 34.58701055 3.09522438 34.15740395 C1.24425157 33.55596836 -0.59918254 32.93147818 -2.44213867 32.3059082 C-3.4937468 31.95647659 -4.54535492 31.60704498 -5.62882996 31.24702454 C-8 30 -8 30 -8.89190674 28.03343201 C-9.05156665 25.02993705 -8.13910921 22.74490793 -7.12890625 19.921875 C-6.71962891 18.76171875 -6.31035156 17.6015625 -5.88867188 16.40625 C-5.45103516 15.1996875 -5.01339844 13.993125 -4.5625 12.75 C-4.12873047 11.52796875 -3.69496094 10.3059375 -3.24804688 9.046875 C-2.17483303 6.02772395 -1.09184062 3.01245444 0 0 Z " fill="#FFD400" transform="translate(345,284)"/>
<path d="M0 0 C4.40200194 12.86182768 8.79612569 25.72632015 13.18011475 38.59429932 C13.90274498 40.71463511 14.62623584 42.83467428 15.35009766 44.95458984 C16.36331336 47.92642844 17.37083451 50.90009408 18.375 53.875 C18.6541626 54.69121826 18.9333252 55.50743652 19.22094727 56.34838867 C20.2299247 59.35667936 21 61.80357988 21 65 C16.75607591 66.53817719 12.50402329 68.05250123 8.25 69.5625 C7.0434375 70.00013672 5.836875 70.43777344 4.59375 70.88867188 C3.43359375 71.29794922 2.2734375 71.70722656 1.078125 72.12890625 C0.00981445 72.51119385 -1.05849609 72.89348145 -2.15917969 73.28735352 C-5.1446621 74.03628985 -6.23671629 74.25324493 -9 73 C-10.24702454 70.62882996 -10.24702454 70.62882996 -11.3059082 67.44213867 C-11.70924881 66.25387985 -12.11258942 65.06562103 -12.52815247 63.84135437 C-12.95302384 62.53377401 -13.37721702 61.22597312 -13.80078125 59.91796875 C-14.24472612 58.58338633 -14.68982572 57.24918751 -15.1360321 55.9153595 C-16.06829855 53.11672563 -16.989118 50.31466299 -17.90161133 47.50952148 C-19.071368 43.9152965 -20.26477818 40.32949574 -21.46635151 36.74579906 C-22.38807935 33.99037402 -23.29921954 31.23154186 -24.2069912 28.47149086 C-24.64321266 27.14810256 -25.08222497 25.82563082 -25.52407265 24.50411034 C-26.14013879 22.65485484 -26.74095155 20.80053889 -27.34106445 18.94604492 C-27.85924492 17.36505257 -27.85924492 17.36505257 -28.38789368 15.75212097 C-29.00450635 12.97973878 -29.14513437 11.58103615 -28 9 C-25.53149414 7.71972656 -25.53149414 7.71972656 -22.28515625 6.640625 C-21.12435547 6.24746094 -19.96355469 5.85429688 -18.76757812 5.44921875 C-17.54490234 5.05347656 -16.32222656 4.65773438 -15.0625 4.25 C-13.84369141 3.83878906 -12.62488281 3.42757812 -11.36914062 3.00390625 C-2.37239151 0 -2.37239151 0 0 0 Z " fill="#FFD400" transform="translate(207,102)"/>
<path d="M0 0 C1.24702454 2.37117004 1.24702454 2.37117004 2.3059082 5.55786133 C2.70924881 6.74612015 3.11258942 7.93437897 3.52815247 9.15864563 C3.95302384 10.46622599 4.37721702 11.77402688 4.80078125 13.08203125 C5.24472612 14.41661367 5.68982572 15.75081249 6.1360321 17.0846405 C7.06829855 19.88327437 7.989118 22.68533701 8.90161133 25.49047852 C10.071368 29.0847035 11.26477818 32.67050426 12.46635151 36.25420094 C13.38807935 39.00962598 14.29921954 41.76845814 15.2069912 44.52850914 C15.64321266 45.85189744 16.08222497 47.17436918 16.52407265 48.49588966 C17.14013879 50.34514516 17.74095155 52.19946111 18.34106445 54.05395508 C18.85924492 55.63494743 18.85924492 55.63494743 19.38789368 57.24787903 C20.0046761 60.02102445 20.16344926 61.42343257 19 64 C16.31616211 65.28027344 16.31616211 65.28027344 12.77734375 66.359375 C11.51728516 66.75253906 10.25722656 67.14570313 8.95898438 67.55078125 C7.61859737 67.9508821 6.27810107 68.35061698 4.9375 68.75 C3.59262645 69.16383213 2.24821787 69.57917857 0.90429688 69.99609375 C-2.39285317 71.01241957 -5.69400269 72.01290876 -9 73 C-13.40200194 60.13817232 -17.79612569 47.27367985 -22.18011475 34.40570068 C-22.90274498 32.28536489 -23.62623584 30.16532572 -24.35009766 28.04541016 C-25.36331336 25.07357156 -26.37083451 22.09990592 -27.375 19.125 C-27.6541626 18.30878174 -27.9333252 17.49256348 -28.22094727 16.65161133 C-29.2299247 13.64332064 -30 11.19642012 -30 8 C-25.75607591 6.46182281 -21.50402329 4.94749877 -17.25 3.4375 C-16.0434375 2.99986328 -14.836875 2.56222656 -13.59375 2.11132812 C-12.43359375 1.70205078 -11.2734375 1.29277344 -10.078125 0.87109375 C-9.00981445 0.48880615 -7.94150391 0.10651855 -6.84082031 -0.28735352 C-3.8553379 -1.03628985 -2.76328371 -1.25324493 0 0 Z " fill="#FFD400" transform="translate(314,337)"/>
<path d="M0 0 C7.42084044 1.35369811 14.49768628 3.64611483 21.65625 5.9921875 C22.83973022 6.37939972 24.02321045 6.76661194 25.24255371 7.16555786 C27.72766598 7.98162032 30.21190663 8.80034139 32.6953125 9.62158203 C35.87959797 10.67372012 39.06995306 11.70606961 42.26200104 12.73437309 C45.31478021 13.72274267 48.35995206 14.73405168 51.40625 15.7421875 C52.55403931 16.10899628 53.70182861 16.47580505 54.88439941 16.85372925 C55.93639526 17.20734528 56.98839111 17.5609613 58.07226562 17.92529297 C59.00220337 18.23014618 59.93214111 18.53499939 60.89025879 18.84909058 C63 20 63 20 63.8525238 21.95211792 C64.07011375 24.97361262 63.14586706 27.23620713 62.12890625 30.078125 C61.71962891 31.23828125 61.31035156 32.3984375 60.88867188 33.59375 C60.45103516 34.8003125 60.01339844 36.006875 59.5625 37.25 C59.12873047 38.47203125 58.69496094 39.6940625 58.24804688 40.953125 C57.17483303 43.97227605 56.09184062 46.98754556 55 50 C47.59023046 48.51034434 40.5428516 46.33169402 33.37890625 43.9375 C32.1977977 43.54554443 31.01668915 43.15358887 29.79978943 42.74975586 C26.68744806 41.71498254 23.57665125 40.67570982 20.46624756 39.63513184 C18.5544851 38.99732606 16.64140355 38.36365338 14.7277832 37.73144531 C11.04689618 36.51466229 7.36879332 35.28981459 3.69140625 34.0625 C2.54877823 33.68536865 1.40615021 33.3082373 0.22889709 32.91967773 C-0.82302322 32.56591064 -1.87494354 32.21214355 -2.95874023 31.84765625 C-3.88645737 31.53836182 -4.8141745 31.22906738 -5.77000427 30.91040039 C-8 30 -8 30 -10 28 C-8.74038826 24.17182776 -7.47688496 20.34496497 -6.2097168 16.51928711 C-5.77894911 15.21690951 -5.34925775 13.91417542 -4.9206543 12.61108398 C-4.30538637 10.74109627 -3.68595941 8.87247858 -3.06640625 7.00390625 C-2.5086853 5.31503296 -2.5086853 5.31503296 -1.93969727 3.59204102 C-1 1 -1 1 0 0 Z " fill="#FFD400" transform="translate(112,178)"/>
</svg>
