<?xml version="1.0" encoding="UTF-8"?>
<svg version="1.1" xmlns="http://www.w3.org/2000/svg" width="500" height="500">
<path d="M0 0 C1.11271774 -0.0071553 2.22543549 -0.01431061 3.37187195 -0.02168274 C4.60391861 -0.02437164 5.83596527 -0.02706055 7.10534668 -0.02983093 C8.39491776 -0.03640213 9.68448883 -0.04297333 11.01313782 -0.04974365 C15.30883529 -0.07084308 19.60453328 -0.08116503 23.90026855 -0.09111023 C25.38234984 -0.09515837 26.86443094 -0.09927531 28.34651184 -0.10346031 C35.32348141 -0.12254043 42.30044034 -0.13675435 49.27743101 -0.14507228 C57.30022863 -0.15479619 65.32274675 -0.18097541 73.34544611 -0.22157317 C79.56054474 -0.25192858 85.77556432 -0.26656016 91.99073553 -0.26985329 C95.69419073 -0.27218573 99.39734844 -0.28090339 103.10072327 -0.30631447 C139.85597559 -0.54548347 139.85597559 -0.54548347 155.36901855 7.95967102 C156.02571533 8.30368958 156.68241211 8.64770813 157.35900879 9.00215149 C162.65478319 11.85266475 167.33129649 15.19925769 171.86901855 19.14717102 C172.71399902 19.77945618 172.71399902 19.77945618 173.5760498 20.42451477 C188.48030098 31.90811813 197.63331238 50.46263563 200.57165527 68.75312805 C202.74170097 86.22395568 200.74398718 102.39723377 192.86901855 118.14717102 C172.73901855 118.14717102 152.60901855 118.14717102 131.86901855 118.14717102 C133.59638442 116.99559378 135.33532075 115.86021583 137.10339355 114.77217102 C147.18109976 108.26234838 152.88296235 99.81359811 155.55651855 88.14717102 C156.74707005 76.71787667 154.90918589 66.62866944 147.8260498 57.33857727 C141.59824616 50.36492888 134.15672539 46.31597267 124.86901855 45.14717102 C121.39793388 45.01104081 117.93075128 45.02076653 114.45739746 45.03364563 C112.9052655 45.03342659 112.9052655 45.03342659 111.32177734 45.03320312 C107.91302367 45.03389792 104.50432514 45.04167005 101.09558105 45.04951477 C98.72761057 45.05138049 96.35963971 45.05280367 93.9916687 45.05380249 C87.76758758 45.05761555 81.54352989 45.06743551 75.31945801 45.07850647 C68.96488766 45.08874662 62.61031353 45.09330569 56.2557373 45.0983429 C43.79348744 45.10905886 31.33125495 45.12612075 18.86901855 45.14717102 C18.50892197 45.81430618 18.14882538 46.48144135 17.77781677 47.16879272 C16.11003472 50.25719834 14.44070536 53.34476515 12.7713623 56.43232727 C12.20526245 57.48118103 11.6391626 58.53003479 11.0559082 59.610672 C6.22484873 68.54185458 1.25117003 77.3869641 -3.7677002 86.21357727 C-6.20486735 90.50313675 -8.62157818 94.80376411 -11.0255127 99.11201477 C-11.66883545 100.26451721 -12.3121582 101.41701965 -12.97497559 102.60444641 C-14.22673445 104.84901825 -15.47726213 107.09427722 -16.72644043 109.34028625 C-17.28790771 110.3464801 -17.849375 111.35267395 -18.42785645 112.38935852 C-18.92640137 113.28509583 -19.42494629 114.18083313 -19.93859863 115.10371399 C-21.13098145 117.14717102 -21.13098145 117.14717102 -22.13098145 118.14717102 C-23.66581114 118.24036551 -25.20490227 118.26462902 -26.74255371 118.26069641 C-27.72349503 118.26062088 -28.70443634 118.26054535 -29.71510315 118.26046753 C-30.78175705 118.25530624 -31.84841095 118.25014496 -32.9473877 118.24482727 C-34.57667458 118.24270485 -34.57667458 118.24270485 -36.23887634 118.24053955 C-39.7237722 118.2349215 -43.20860486 118.22236595 -46.69348145 118.20967102 C-49.04960031 118.20465835 -51.40572018 118.20009504 -53.76184082 118.19599915 C-59.55157609 118.18494621 -65.34127425 118.16819053 -71.13098145 118.14717102 C-66.20039987 108.84551786 -61.1999878 99.59004019 -56.06848145 90.39717102 C-55.09041081 88.6410029 -54.11234264 86.88483339 -53.13441467 85.12858582 C-52.13103637 83.32695714 -51.12711026 81.52563444 -50.12316895 79.72431946 C-47.55626239 75.1170914 -44.99817744 70.50497285 -42.43933105 65.89326477 C-34.70561313 51.95783776 -26.93750107 38.04194525 -19.13098145 24.14717102 C-18.51819336 23.05597961 -17.90540527 21.96478821 -17.27404785 20.8405304 C-15.45764435 17.60821266 -13.63858218 14.37740805 -11.81848145 11.14717102 C-11.26080078 10.15491516 -10.70312012 9.1626593 -10.12854004 8.14033508 C-9.61758789 7.23509094 -9.10663574 6.3298468 -8.5802002 5.39717102 C-7.90477173 4.1983429 -7.90477173 4.1983429 -7.21569824 2.97529602 C-5.19235139 -0.43474703 -3.91523118 0.01720419 0 0 Z " fill="#E6B007" transform="translate(226.1309814453125,107.85282897949219)"/>
<path d="M0 0 C6.72525156 -0.25397215 13.44926505 -0.42882941 20.17822266 -0.54931641 C22.46580199 -0.59954658 24.75306119 -0.66774792 27.03955078 -0.75439453 C30.33185657 -0.87601382 33.61991743 -0.93246228 36.9140625 -0.9765625 C38.44252304 -1.05398178 38.44252304 -1.05398178 40.00186157 -1.13296509 C42.97595526 -1.13530373 45.20294254 -1.02182023 48 0 C50.74250253 3.01233844 52.33754281 6.30703193 54 10 C54.57556641 11.0010376 55.15113281 12.0020752 55.74414062 13.03344727 C56.21013672 13.86932373 56.67613281 14.7052002 57.15625 15.56640625 C57.69660889 16.53360596 58.23696777 17.50080566 58.79370117 18.49731445 C59.35677979 19.50882568 59.9198584 20.52033691 60.5 21.5625 C61.7356063 23.77608118 62.97128549 25.98962167 64.20703125 28.203125 C64.83432129 29.32783203 65.46161133 30.45253906 66.10791016 31.61132812 C68.53985166 35.96685691 70.98126833 40.31703025 73.42358398 44.66674805 C75.16732354 47.77651748 76.90429973 50.88999243 78.640625 54.00390625 C80.85198827 57.96603888 83.09327418 61.9087846 85.359375 65.83984375 C86.3854812 67.64319245 87.41152616 69.446576 88.4375 71.25 C88.91662842 72.06573486 89.39575684 72.88146973 89.8894043 73.72192383 C90.31648682 74.47884521 90.74356934 75.2357666 91.18359375 76.015625 C91.56056396 76.66821289 91.93753418 77.32080078 92.32592773 77.99316406 C93.56145789 81.67156243 92.31165056 84.35380376 90.68066406 87.7355957 C90.13120117 88.70585693 89.58173828 89.67611816 89.015625 90.67578125 C88.40976563 91.75150391 87.80390625 92.82722656 87.1796875 93.93554688 C86.22449219 95.60713867 86.22449219 95.60713867 85.25 97.3125 C84.62867188 98.41529297 84.00734375 99.51808594 83.3671875 100.65429688 C82.15112607 102.80292863 80.92167548 104.94404806 79.67773438 107.07666016 C78.64117054 108.88280325 77.64376887 110.71286767 76.71289062 112.57568359 C75.60738703 114.67789959 74.71295667 116.35415319 73 118 C70.05230912 118.68100634 68.06049462 118.41498232 65 118 C55.83633991 102.08989634 46.89410714 86.06198878 38 70 C30.77174356 56.95495444 23.53689804 43.91478599 16.1875 30.9375 C14.12454392 27.29192451 12.06209537 23.64606241 10 20 C9.4946875 19.10732422 8.989375 18.21464844 8.46875 17.29492188 C7.03713427 14.76163311 5.61142852 12.22511563 4.1875 9.6875 C3.76041748 8.9339624 3.33333496 8.1804248 2.89331055 7.40405273 C0 2.22913933 0 2.22913933 0 0 Z " fill="#E5AF07" transform="translate(61,108)"/>
<path d="M0 0 C4.69544874 -0.17420329 9.38898279 -0.3005956 14.08691406 -0.38452148 C15.68164872 -0.41953336 17.27616177 -0.46716172 18.87011719 -0.52807617 C33.82060138 -1.08474314 33.82060138 -1.08474314 38.75 3.18359375 C39.86910624 4.4243761 40.95610857 5.69530452 42 7 C42.95831165 7.95846823 43.92633715 8.90737754 44.90625 9.84375 C45.7621875 10.7203125 46.618125 11.596875 47.5 12.5 C50.55098845 15.59714402 53.62343509 18.61951134 56.9375 21.4375 C60.476791 24.45352827 63.73494445 27.69447901 67 31 C70.24451876 34.28467991 73.47922358 37.50734004 77 40.5 C81.08874765 43.9754355 84.80816684 47.78100237 88.57592773 51.59545898 C91.9058233 54.95060894 95.33931399 58.09725452 98.94140625 61.16015625 C101.56497052 63.5049357 104.03014717 65.99607734 106.5 68.5 C110.33774952 72.38578811 114.24276008 76.07090236 118.44140625 79.5625 C120 81 120 81 122 84 C113.94999038 84.37434256 105.90373395 84.65672978 97.84711552 84.82899475 C94.10364604 84.91177716 90.36621288 85.02350885 86.6262207 85.20703125 C59.19049823 86.51798601 59.19049823 86.51798601 50.00779724 78.54968262 C47.35521538 75.84986572 44.93839383 73.05526497 42.63243103 70.05506897 C40.00396894 66.74609555 36.96509614 63.87589769 33.9375 60.9375 C32.96487068 59.94914422 31.99438821 58.95866465 31.02734375 57.96484375 C28.81770921 55.74927531 26.51546135 53.68627819 24.14453125 51.64453125 C19.79778092 47.8845793 15.7736729 43.85016859 11.75 39.75 C10.37219977 38.3465901 8.99206979 36.94546283 7.609375 35.546875 C7.01092773 34.93682617 6.41248047 34.32677734 5.79589844 33.69824219 C4.04422261 31.91716747 4.04422261 31.91716747 1.79882812 30.69311523 C0 29 0 29 -0.45410156 25.99731445 C-0.4331543 24.7980835 -0.41220703 23.59885254 -0.390625 22.36328125 C-0.37773437 21.06455078 -0.36484375 19.76582031 -0.3515625 18.42773438 C-0.31814101 17.05597897 -0.28428123 15.68423419 -0.25 14.3125 C-0.22993376 12.92906188 -0.21168319 11.54559616 -0.1953125 10.16210938 C-0.14809207 6.77404351 -0.08224069 3.38736759 0 0 Z " fill="#E5AF07" transform="translate(316,308)"/>
<path d="M0 0 C16.17 0 32.34 0 49 0 C47.59145276 3.52136809 46.20714513 6.62850859 44.41796875 9.9296875 C43.64876099 11.35124146 43.64876099 11.35124146 42.86401367 12.80151367 C42.31076416 13.81576416 41.75751465 14.83001465 41.1875 15.875 C40.60782471 16.94145752 40.02814941 18.00791504 39.4309082 19.10668945 C35.07055644 27.10174839 30.6157428 35.04014855 26.11279297 42.95556641 C20.71866444 52.45176797 15.45537222 62.01891514 10.20385742 71.59448242 C9.87211517 72.19824203 9.54037292 72.80200165 9.19857788 73.42405701 C8.29449603 75.06955952 7.39194798 76.71590447 6.48950195 78.36230469 C5 81 5 81 3 84 C0.89926147 84.36076355 0.89926147 84.36076355 -1.72509766 84.34057617 C-2.70596344 84.34034958 -3.68682922 84.34012299 -4.69741821 84.33988953 C-5.75891083 84.32440567 -6.82040344 84.30892181 -7.9140625 84.29296875 C-8.99883881 84.28872391 -10.08361511 84.28447906 -11.20126343 84.28010559 C-14.67609167 84.263273 -18.15034618 84.22561189 -21.625 84.1875 C-23.97655414 84.17245911 -26.32811735 84.15876967 -28.6796875 84.14648438 C-34.45332173 84.11335454 -40.22661989 84.06310982 -46 84 C-41.1635307 74.17801645 -36.17602484 64.4854273 -30.8125 54.9375 C-29.84920776 53.21285522 -29.84920776 53.21285522 -28.86645508 51.45336914 C-24.18778513 43.08141072 -19.47650865 34.72750832 -14.73950195 26.38842773 C-9.76537669 17.62473261 -4.89475921 8.81056658 0 0 Z " fill="#E6B007" transform="translate(109,308)"/>
<path d="M0 0 C5.83442903 -0.32281905 11.66361512 -0.5578377 17.50488281 -0.71411133 C19.48822571 -0.77926353 21.47094928 -0.86782452 23.45214844 -0.98071289 C39.84268332 -1.89084058 39.84268332 -1.89084058 44.91137695 2.55175781 C47.02540007 5.94973649 48.53233785 9.28102445 50 13 C51.03083721 14.91738262 52.08572099 16.82209626 53.16796875 18.7109375 C54.1776209 20.5972801 55.18405864 22.48534624 56.1875 24.375 C60.5396234 32.48745484 64.95781646 40.55481904 69.5 48.5625 C70.0264209 49.490625 70.5528418 50.41875 71.09521484 51.375 C72.72856966 54.2508978 74.36405258 57.12557628 76 60 C78.44026112 64.29010505 80.87718393 68.58208638 83.3125 72.875 C83.88226563 73.87474854 84.45203125 74.87449707 85.0390625 75.90454102 C85.55855469 76.82033936 86.07804687 77.7361377 86.61328125 78.6796875 C87.07516846 79.49163574 87.53705566 80.30358398 88.01293945 81.14013672 C89 83 89 83 89 84 C72.83 84 56.66 84 40 84 C32.5318691 70.82588145 25.08259624 57.64296921 17.76757812 44.38305664 C14.80282658 39.01348521 11.81878621 33.66129498 8.74188232 28.35534668 C7.30838628 25.8806345 5.88809327 23.39846434 4.46868896 20.91564941 C3.78616323 19.73045025 3.09715001 18.5489614 2.40142822 17.37145996 C1.43749914 15.73893624 0.49745679 14.09237933 -0.44140625 12.4453125 C-0.98482666 11.51219238 -1.52824707 10.57907227 -2.08813477 9.61767578 C-3 7 -3 7 -2.22241211 4.28466797 C-1.81901611 3.53072754 -1.41562012 2.77678711 -1 2 C-0.67 1.34 -0.34 0.68 0 0 Z " fill="#E5AF07" transform="translate(178,308)"/>
<path d="M0 0 C11 0 11 0 14.69921875 3.0625 C15.72931805 4.34848384 16.7255336 5.66228566 17.6875 7 C18.21021484 7.66773438 18.73292969 8.33546875 19.27148438 9.0234375 C20.54486095 10.65896704 21.77691442 12.32652863 23 14 C23.33 9.38 23.66 4.76 24 0 C27.3 0 30.6 0 34 0 C34 10.89 34 21.78 34 33 C24 33 24 33 20.1875 29.875 C19.09734019 28.60659131 18.03389565 27.31467441 17 26 C16.49210937 25.40574219 15.98421875 24.81148438 15.4609375 24.19921875 C14.28264829 22.82015959 13.13732137 21.41303564 12 20 C11.67 24.29 11.34 28.58 11 33 C7.37 33 3.74 33 0 33 C0 22.11 0 11.22 0 0 Z " fill="#DBA807" transform="translate(223,249)"/>
<path d="M0 0 C3.03695123 3.03695123 3.21286946 5.15960601 3.375 9.375 C1.75081255 9.45590971 0.12548255 9.51414995 -1.5 9.5625 C-2.40492188 9.59730469 -3.30984375 9.63210938 -4.2421875 9.66796875 C-5.42167969 9.52294922 -5.42167969 9.52294922 -6.625 9.375 C-7.285 8.385 -7.945 7.395 -8.625 6.375 C-11.20880177 6.12469023 -11.20880177 6.12469023 -13.625 6.375 C-13.625 7.035 -13.625 7.695 -13.625 8.375 C-12.90054688 8.54515625 -12.17609375 8.7153125 -11.4296875 8.890625 C-5.74013972 10.31680498 -1.1957113 11.64626184 3.375 15.375 C4.94955739 18.52411479 4.72299118 20.89508816 4.375 24.375 C1.52784764 28.68640215 -0.75033047 30.8145331 -5.625 32.375 C-12.23846869 33.12608715 -17.84480177 32.7467823 -23.625 29.375 C-26.29670045 26.87566732 -26.59948134 25.81732347 -26.8125 22.125 C-26.7196875 20.76375 -26.7196875 20.76375 -26.625 19.375 C-23.325 19.375 -20.025 19.375 -16.625 19.375 C-16.295 20.365 -15.965 21.355 -15.625 22.375 C-12.86235711 22.97232819 -10.46467231 23.375 -7.625 23.375 C-7.955 22.715 -8.285 22.055 -8.625 21.375 C-10.69101425 20.73301817 -12.77892998 20.16076678 -14.875 19.625 C-22.3158987 17.41968425 -22.3158987 17.41968425 -24.9375 14.5 C-26.83334735 10.98917158 -27.29205132 9.29392648 -26.625 5.375 C-25.58513782 2.39406175 -24.58639857 0.91048867 -21.80859375 -0.63671875 C-14.44600439 -3.54750989 -7.18940051 -3.22283471 0 0 Z " fill="#D4A207" transform="translate(214.625,250.625)"/>
<path d="M0 0 C5.506875 -0.1546875 5.506875 -0.1546875 11.125 -0.3125 C12.2711377 -0.35802002 13.41727539 -0.40354004 14.59814453 -0.45043945 C23.04279813 -0.56519671 23.04279813 -0.56519671 26.6796875 2.39453125 C29.87459538 5.98207932 30.35164526 8.05876314 30.28125 12.8984375 C29.81551608 16.37850484 28.28243136 18.40913197 26 21 C21.64829077 23.73536009 16.97622826 23.14854413 12 23 C12 26.3 12 29.6 12 33 C8.04 33 4.08 33 0 33 C0 22.11 0 11.22 0 0 Z M12 8 C12 9.98 12 11.96 12 14 C13.98 14 15.96 14 18 14 C18.042721 12.33388095 18.04063832 10.66617115 18 9 C16.93354885 7.70366379 16.93354885 7.70366379 14.4375 7.9375 C13.633125 7.958125 12.82875 7.97875 12 8 Z " fill="#D7A407" transform="translate(282,249)"/>
<path d="M0 0 C3.63 0 7.26 0 11 0 C11 10.89 11 21.78 11 33 C7.37 33 3.74 33 0 33 C0 22.11 0 11.22 0 0 Z " fill="#E2AD07" transform="translate(264,249)"/>
</svg>
