<?xml version="1.0" encoding="UTF-8"?>
<svg version="1.1" xmlns="http://www.w3.org/2000/svg" width="1100" height="1100">
<path d="M0 0 C36.40012179 -0.04584793 72.80023849 -0.08105492 109.20038324 -0.10213066 C113.50460125 -0.10463186 117.80881919 -0.10722053 122.11303711 -0.10986328 C122.96987489 -0.1103879 123.82671266 -0.11091252 124.70951522 -0.11145304 C138.55580568 -0.12013902 152.40207941 -0.13589897 166.24835997 -0.15430559 C180.4719071 -0.17305505 194.69544552 -0.18412736 208.9190045 -0.18817699 C217.68499263 -0.19091161 226.45093347 -0.19952659 235.21690703 -0.21583293 C241.24040201 -0.2264622 247.26387279 -0.22958728 253.28737646 -0.22700275 C256.7547461 -0.22573064 260.22203352 -0.22758289 263.68938828 -0.23841095 C281.97913542 -0.28708908 299.46166745 0.24146775 317.3125 4.625 C318.89780518 5.01196045 318.89780518 5.01196045 320.51513672 5.40673828 C340.94966486 10.61602166 359.88342894 19.71003384 377 32 C378.02867187 32.72960937 379.05734375 33.45921875 380.1171875 34.2109375 C395.94876768 45.84061448 411.01550503 60.69584203 422 77 C422.39654785 77.57927246 422.7930957 78.15854492 423.20166016 78.75537109 C450.88948187 119.56017719 459.28489662 168.51501779 450.44140625 216.75585938 C448.68794697 225.67057049 446.0012569 234.28877637 443.0625 242.875 C442.83393311 243.55264404 442.60536621 244.23028809 442.36987305 244.9284668 C440.40887444 250.45798368 437.94792412 254.69373658 435 260 C390.78 260 346.56 260 301 260 C304.33403905 257.49947071 307.17875892 255.87375031 310.875 254.0625 C330.73309664 243.43139776 345.12244753 224.88521769 352.375 203.6875 C358.7160267 180.71889217 356.60276125 156.65925282 345.203125 135.69921875 C334.86299767 117.76066451 317.03626663 104.87232713 297.25 99.25 C289.94638776 97.32328021 282.85981724 96.8549547 275.3506012 96.87974548 C274.39723607 96.87889106 273.44387095 96.87803663 272.46161598 96.87715632 C269.2772071 96.87551337 266.09285127 96.88100347 262.90844727 96.88647461 C260.62172955 96.88675676 258.33501173 96.8865982 256.04829407 96.8860321 C249.8464191 96.88574523 243.64456347 96.89162427 237.442693 96.89860606 C230.95910569 96.90485783 224.47551795 96.90544484 217.9919281 96.90663147 C207.11155859 96.9093863 196.23119621 96.91563229 185.35083008 96.92456055 C174.14607783 96.93374541 162.94132752 96.94082099 151.73657227 96.94506836 C151.04542836 96.94533108 150.35428445 96.94559381 149.64219678 96.94586449 C146.1747867 96.94716957 142.70737661 96.94843327 139.23996651 96.94967639 C110.49330632 96.96003608 81.74665333 96.97771765 53 97 C52.55557053 97.80583527 52.11114105 98.61167053 51.65324402 99.44192505 C49.96438519 102.50399527 48.2754051 105.56599853 46.58634949 108.62796021 C45.86281239 109.93966133 45.13932019 111.25138723 44.4158783 112.56314087 C34.86903288 129.87341438 25.31641287 147.18028375 15.5625 164.375 C9.64548857 174.80755339 3.84788544 185.3040545 -1.9364624 195.8104248 C-2.27325012 196.42212524 -2.61003784 197.03382568 -2.95703125 197.6640625 C-3.2939801 198.27608521 -3.63092896 198.88810791 -3.97808838 199.51867676 C-8.704152 208.09908576 -13.46834254 216.65832153 -18.23046875 225.21875 C-20.54718043 229.38356995 -22.85973986 233.55064007 -25.16716003 237.72061157 C-26.56511482 240.24687561 -27.96427654 242.7724703 -29.36349487 245.29803467 C-30.03395378 246.50900745 -30.70382174 247.72030761 -31.37307739 248.9319458 C-32.29667486 250.60391001 -33.222499 252.27464363 -34.1484375 253.9453125 C-34.94000244 255.37641357 -34.94000244 255.37641357 -35.74755859 256.83642578 C-37 259 -37 259 -38 260 C-39.37876025 260.0953919 -40.76236916 260.12188622 -42.14442444 260.12025452 C-43.03769943 260.12162918 -43.93097443 260.12300385 -44.85131836 260.12442017 C-45.83890137 260.12082489 -46.82648438 260.11722961 -47.84399414 260.11352539 C-49.3950309 260.11374443 -49.3950309 260.11374443 -50.97740173 260.1139679 C-54.41334086 260.11326827 -57.84922653 260.10547358 -61.28515625 260.09765625 C-63.66027293 260.09579225 -66.03539 260.09436826 -68.4105072 260.09336853 C-74.67576144 260.08954197 -80.94099267 260.0797105 -87.20623779 260.06866455 C-93.5938689 260.0584534 -99.98150371 260.05387155 -106.36914062 260.04882812 C-118.91277026 260.03808836 -131.45638391 260.02120127 -144 260 C-142.64734028 256.56076054 -141.17964757 253.32075612 -139.41796875 250.0703125 C-138.90516357 249.12260986 -138.3923584 248.17490723 -137.86401367 247.19848633 C-137.0341394 245.6771106 -137.0341394 245.6771106 -136.1875 244.125 C-135.60782471 243.05854248 -135.02814941 241.99208496 -134.4309082 240.89331055 C-130.06254162 232.88355578 -125.59807442 224.93144888 -121.08862305 217.00048828 C-116.66073949 209.20240176 -112.32084947 201.35764125 -108 193.5 C-103.21738943 184.80417695 -98.40143564 176.12964312 -93.5 167.5 C-88.62221005 158.91053455 -83.82491384 150.27875297 -79.0625 141.625 C-73.48821441 131.49624273 -67.87454518 121.3910737 -62.21679688 111.30859375 C-57.98063132 103.75737679 -53.76553322 96.19470694 -49.5625 88.625 C-48.94125244 87.50625488 -48.32000488 86.38750977 -47.67993164 85.23486328 C-44.50993126 79.52484319 -41.34220174 73.81356842 -38.17578125 68.1015625 C-31.86516604 56.72271929 -25.5317403 45.3582554 -19.11327267 34.03983879 C-14.91778882 26.63606876 -10.75268697 19.21559703 -6.59765625 11.7890625 C-5.95896606 10.64800049 -5.32027588 9.50693848 -4.66223145 8.33129883 C-3.10791585 5.55433255 -1.55384244 2.77723105 0 0 Z " fill="#A96B28" transform="translate(486,238)"/>
<path d="M0 0 C34.98 0 69.96 0 106 0 C110.95 8.91 115.9 17.82 121 27 C125.84276885 35.56806675 125.84276885 35.56806675 130.69140625 44.1328125 C134.95017786 51.6678575 139.14363846 59.2390491 143.34155273 66.80810547 C149.28632382 77.52472941 155.27223889 88.21800966 161.26611328 98.90722656 C164.1793914 104.10370745 167.08952827 109.30194696 170 114.5 C171.1666518 116.58334166 172.33331846 118.66667499 173.5 120.75 C175.83333333 124.91666667 178.16666667 129.08333333 180.5 133.25 C181.0787085 134.28286133 181.65741699 135.31572266 182.25366211 136.37988281 C183.41000899 138.44588494 184.5644955 140.51292951 185.71704102 142.58105469 C188.44712778 147.47456997 191.1951122 152.35488128 194.01010132 157.20019531 C195.01449636 158.93098616 196.01217711 160.66566773 197.00976562 162.40039062 C198.26885975 164.5881783 199.53923627 166.76952208 200.82226562 168.94335938 C201.6662793 170.41772461 201.6662793 170.41772461 202.52734375 171.921875 C203.28132446 173.21496582 203.28132446 173.21496582 204.05053711 174.53417969 C205.21461787 177.55737736 204.98604712 178.94331456 204 182 C203.00708008 184.20629883 203.00708008 184.20629883 201.76953125 186.45703125 C201.30369629 187.30950439 200.83786133 188.16197754 200.35791016 189.0402832 C199.59293213 190.41253052 199.59293213 190.41253052 198.8125 191.8125 C198.27931152 192.77953857 197.74612305 193.74657715 197.19677734 194.74291992 C192.71210888 202.8292281 188.06512587 210.81797656 183.37451172 218.78613281 C178.34202896 227.35093785 173.48746549 236.00901759 168.70556641 244.71606445 C167.63825942 246.64421006 166.55113748 248.56157198 165.44091797 250.46533203 C163.99018172 252.91211524 163.99018172 252.91211524 163.01611328 255.26513672 C161.85520452 257.5725079 161.21806985 258.63775484 159 260 C153.93020222 260.58412814 149.07732912 260.40235438 144 260 C143.58862793 259.25242432 143.17725586 258.50484863 142.75341797 257.73461914 C134.95520113 243.56832697 127.13337231 229.41659931 119.2199707 215.31420898 C114.98270889 207.76114162 110.76657695 200.19658671 106.5625 192.625 C105.94125244 191.50625488 105.32000488 190.38750977 104.67993164 189.23486328 C101.50993126 183.52484319 98.34220174 177.81356842 95.17578125 172.1015625 C89.34413717 161.58665963 83.49604535 151.0827934 77.5625 140.625 C72.31610828 131.37676602 67.16444848 122.07824552 62.03790283 112.76330566 C57.36992363 104.28229462 52.67497122 95.8174856 47.9375 87.375 C43.12686068 78.80212402 38.33461642 70.21938565 33.5625 61.625 C32.94270264 60.50915527 32.32290527 59.39331055 31.68432617 58.24365234 C28.81277973 53.07226333 25.94359088 47.89958976 23.08053589 42.72349548 C21.47153035 39.81501314 19.86085357 36.90745932 18.25 34 C17.63189453 32.88391357 17.01378906 31.76782715 16.37695312 30.61791992 C12.07221633 22.86859143 7.67664729 15.1771764 3.14746094 7.55664062 C0 2.2115299 0 2.2115299 0 0 Z " fill="#A96B28" transform="translate(134,238)"/>
<path d="M0 0 C9.37964715 -0.16258069 18.75880535 -0.28676462 28.13955688 -0.3626852 C32.49605265 -0.39913398 36.85158068 -0.44852733 41.20751953 -0.52807617 C45.41567413 -0.60444044 49.62290127 -0.64605308 53.83169556 -0.6641407 C55.43289788 -0.67702091 57.0340525 -0.70217433 58.63485718 -0.7401104 C72.74213691 -1.06096463 72.74213691 -1.06096463 77.8515625 3.35131836 C78.93470924 4.53766076 79.98753904 5.75278793 81 7 C82.03178817 8.03081682 83.071892 9.0534739 84.125 10.0625 C85.08528808 11.03974969 86.04361726 12.01892804 87 13 C90.24215227 16.28673187 93.47950983 19.50758336 97 22.5 C100.52077694 25.4926604 103.7554753 28.7153265 107 32 C110.22398087 35.26382615 113.43517847 38.46830141 116.9375 41.4375 C121.2786307 45.12610166 125.21834341 49.19243757 129.22021484 53.23974609 C132.66020488 56.70370123 136.18544944 59.97117384 139.91015625 63.12890625 C143.27496075 66.14150691 146.40545188 69.38572042 149.57836914 72.59790039 C152.30324079 75.34341827 155.05032325 77.99277476 158 80.5 C162.0895362 83.97610577 165.8096054 87.78249656 169.578125 91.59765625 C172.30308001 94.34325486 175.05023473 96.99269952 178 99.5 C181.52077694 102.4926604 184.7554753 105.7153265 188 109 C191.22398087 112.26382615 194.43517847 115.46830141 197.9375 118.4375 C202.2786307 122.12610166 206.21834341 126.19243757 210.22021484 130.23974609 C213.66020488 133.70370123 217.18544944 136.97117384 220.91015625 140.12890625 C224.27496075 143.14150691 227.40545188 146.38572042 230.57836914 149.59790039 C233.30324079 152.34341827 236.05032325 154.99277476 239 157.5 C243.08429465 160.97165045 246.8018666 164.77130359 250.56274414 168.58447266 C253.9596697 172.01111524 257.44721791 175.24537305 261.18359375 178.3046875 C263.71629949 180.66854619 265.79568139 183.32685496 268 186 C250.00592779 186.3515666 232.01275547 186.61547199 214.01598263 186.77718258 C205.65816378 186.85429022 197.30248753 186.95925619 188.94604492 187.1315918 C181.65599488 187.28186247 174.36749703 187.37804682 167.07594115 187.41132742 C163.21979706 187.43076374 159.36808996 187.47587139 155.51338005 187.58595085 C128.9648038 188.31531862 128.9648038 188.31531862 120.68072605 180.72311497 C118.33042382 178.17634689 116.23412107 175.54003708 114.24829292 172.70158577 C112.61786618 170.47910185 110.70335744 168.78517966 108.5625 167.0625 C103.75033592 162.98827037 99.41172734 158.45883139 95 153.9609375 C91.77025802 150.69334698 88.51488375 147.52847667 85.03125 144.53125 C79.85685023 140.07439395 75.13749431 135.1855361 70.35546875 130.31640625 C66.36461298 126.2817751 62.28347991 122.46028262 57.98242188 118.75976562 C53.78759393 115.03608091 49.92583073 110.96344461 46 106.9609375 C42.77025802 103.69334698 39.51488375 100.52847667 36.03125 97.53125 C30.85685023 93.07439395 26.13749431 88.1855361 21.35546875 83.31640625 C17.41733655 79.33507699 13.42115129 75.52187259 9.13476562 71.91601562 C8.43029297 71.28373047 7.72582031 70.65144531 7 70 C6.41327011 69.58346664 5.82654022 69.16693329 5.22203064 68.73777771 C1.9383837 66.09744476 0.22855658 64.14493101 -0.61044312 59.94204712 C-0.81009084 56.12764121 -0.78838721 52.34997991 -0.68359375 48.53515625 C-0.67051999 47.1327106 -0.66056421 45.73023273 -0.65357971 44.32774353 C-0.62699165 40.65589416 -0.55835769 36.98601722 -0.48065186 33.31494141 C-0.4087373 29.56114379 -0.37700864 25.80702392 -0.34179688 22.05273438 C-0.26697042 14.70092861 -0.14767788 7.3507418 0 0 Z " fill="#A96B28" transform="translate(696,677)"/>
<path d="M0 0 C1.17113799 0.00138269 1.17113799 0.00138269 2.36593533 0.00279331 C3.70584782 0.00073132 3.70584782 0.00073132 5.07282925 -0.00137234 C6.55420376 0.00402058 6.55420376 0.00402058 8.06550503 0.00952244 C9.09952953 0.00937641 10.13355404 0.00923038 11.19891262 0.00907993 C14.63485175 0.00977956 18.07073742 0.01757425 21.50666714 0.02539158 C23.88178382 0.02725558 26.25690089 0.02867957 28.63201809 0.0296793 C34.89727233 0.03350586 41.16250356 0.04333732 47.42774868 0.05438328 C53.81537979 0.06459443 60.2030146 0.06917628 66.59065151 0.0742197 C79.13428115 0.08495947 91.6778948 0.10184656 104.22151089 0.12304783 C102.86885117 3.56228729 101.40115845 6.80229171 99.63947964 10.05273533 C99.12667446 11.00043797 98.61386929 11.9481406 98.08552456 12.9245615 C97.53227505 13.93881199 96.97902554 14.95306248 96.40901089 15.99804783 C95.82933559 17.06450535 95.2496603 18.13096287 94.65241909 19.22973728 C90.28248032 27.24237478 85.81552764 35.19681331 81.3057394 43.13134861 C76.92642119 50.84608157 72.62444957 58.60185299 68.34651089 66.37304783 C68.01018642 66.98391239 67.67386196 67.59477695 67.32734585 68.22415257 C66.82201321 69.14199024 66.82201321 69.14199024 66.30647182 70.07837009 C65.62581996 71.31462355 64.9451559 72.5508703 64.26447964 73.78711033 C63.92752071 74.39914814 63.59056179 75.01118595 63.24339199 75.64177036 C57.88476247 85.37068571 52.47915397 95.07359168 47.08039761 104.78027439 C44.58500607 109.26765303 42.09152722 113.75609294 39.59821987 118.24462986 C38.34919934 120.49309429 37.1000137 122.74146701 35.85066128 124.98974705 C32.69820626 130.66293225 29.54780959 136.33724404 26.40119839 142.01367283 C20.24821928 153.10980212 14.07763582 164.19557045 7.84651089 175.24804783 C7.29269741 176.23256931 6.73888393 177.2170908 6.16828823 178.23144627 C5.66249233 179.12637791 5.15669643 180.02130955 4.63557339 180.94336033 C4.19165249 181.72984959 3.74773159 182.51633884 3.29035854 183.32666111 C2.22151089 185.12304783 2.22151089 185.12304783 1.22151089 186.12304783 C-0.15724937 186.21843973 -1.54085827 186.24493405 -2.92291355 186.24330235 C-3.81618855 186.24467701 -4.70946354 186.24605167 -5.62980747 186.24746799 C-6.61739048 186.24387272 -7.60497349 186.24027744 -8.62248325 186.23657322 C-10.17352001 186.23679226 -10.17352001 186.23679226 -11.75589085 186.23701572 C-15.19182997 186.2363161 -18.62771565 186.22852141 -22.06364536 186.22070408 C-24.43876205 186.21884007 -26.81387911 186.21741609 -29.18899632 186.21641636 C-35.45425056 186.2125898 -41.71948179 186.20275833 -47.98472691 186.19171238 C-54.37235802 186.18150123 -60.75999283 186.17691938 -67.14762974 186.17187595 C-79.69125937 186.16113619 -92.23487302 186.1442491 -104.77848911 186.12304783 C-103.44475001 181.99727017 -101.95860446 178.36165824 -99.82927036 174.58007908 C-99.23622105 173.52030857 -98.64317173 172.46053806 -98.03215122 171.3686533 C-97.39156773 170.23572849 -96.75098423 169.10280369 -96.09098911 167.93554783 C-95.41670197 166.73419082 -94.74296516 165.53252478 -94.06974888 164.33056736 C-92.67104548 161.83426732 -91.26998739 159.33931085 -89.8673563 156.8452158 C-86.62603972 151.07627218 -83.42397513 145.28557326 -80.21598911 139.49804783 C-74.84832402 129.83011539 -69.45345105 120.17771366 -64.04557896 110.53222752 C-57.255193 98.41511443 -50.5178963 86.26856373 -43.77848911 74.12304783 C-19.40119065 30.19116219 -19.40119065 30.19116219 -7.96598911 10.12304783 C-7.45592319 9.22602146 -6.94585728 8.32899509 -6.42033482 7.40478611 C-5.95458042 6.58993748 -5.48882603 5.77508884 -5.00895786 4.93554783 C-4.60056675 4.22011814 -4.19217564 3.50468845 -3.77140903 2.76757908 C-2.19199153 0.1516567 -2.19199153 0.1516567 0 0 Z " fill="#A96B28" transform="translate(243.778489112854,676.8769521713257)"/>
<path d="M0 0 C30.03 0 60.06 0 91 0 C95.29 7.92 99.58 15.84 104 24 C108.77027779 32.4564156 108.77027779 32.4564156 113.55859375 40.90234375 C117.38314206 47.65605004 121.13207408 54.45088129 124.875 61.25 C125.55427714 62.48364448 126.23355774 63.71728706 126.9128418 64.95092773 C127.24950363 65.56234116 127.58616547 66.17375458 127.93302917 66.80369568 C128.2696608 67.4150386 128.60629242 68.02638153 128.953125 68.65625 C129.28987747 69.26787491 129.62662994 69.87949982 129.97358704 70.50965881 C138.82278594 86.57613402 147.76311323 102.59206082 156.7331543 118.59130859 C162.86960535 129.54132105 168.96134375 140.51603581 175.05175781 151.49169922 C177.10194286 155.1848693 179.15636383 158.87567642 181.2109375 162.56640625 C182.24421453 164.42332474 183.27741254 166.28028717 184.31057739 168.13726807 C185.29104625 169.89895239 186.27234494 171.66017479 187.25366211 173.42138672 C187.84671143 174.48760254 188.43976074 175.55381836 189.05078125 176.65234375 C189.57325439 177.59070068 190.09572754 178.52905762 190.6340332 179.49584961 C191.80566731 181.64374077 192.91284748 183.80877309 194 186 C180.28330483 186.23169206 166.56707493 186.40937859 152.84882164 186.51812172 C146.47875235 186.57031393 140.11002151 186.64110177 133.74072266 186.75439453 C127.59386682 186.86304645 121.44829814 186.92284089 115.30055618 186.94877243 C112.95521396 186.96725132 110.60994233 187.00333861 108.26514816 187.05730057 C104.97909134 187.12991695 101.69835107 187.1398922 98.41162109 187.13525391 C97.44201447 187.17120667 96.47240784 187.20715942 95.47341919 187.24420166 C92.65050766 187.20109148 90.61946699 187.0648922 88 186 C85.33881169 182.94588276 83.67530889 179.66643628 82 176 C81.42967041 175.00943604 80.85934082 174.01887207 80.27172852 172.99829102 C79.81209717 172.17514404 79.35246582 171.35199707 78.87890625 170.50390625 C78.34402588 169.54758301 77.80914551 168.59125977 77.25805664 167.60595703 C76.69852295 166.60161621 76.13898926 165.59727539 75.5625 164.5625 C74.95978271 163.48339355 74.35706543 162.40428711 73.73608398 161.29248047 C67.4367848 150.00721811 61.16236569 138.7080913 54.89111328 127.40722656 C51.76254949 121.77048034 48.63117393 116.1352966 45.5 110.5 C41.736869 103.72734545 37.97434852 96.9543558 34.21484375 90.1796875 C28.1625497 79.27555442 22.09786764 68.37871982 16 57.5 C15.43829102 56.49598145 14.87658203 55.49196289 14.29785156 54.45751953 C11.50404613 49.46381096 8.70444786 44.47359138 5.88790894 39.49267578 C4.48882505 37.0155487 3.09536264 34.53528652 1.70288086 32.05444336 C1.03250229 30.86310699 0.35969647 29.67313281 -0.31567383 28.48461914 C-1.2545073 26.83184923 -2.18408704 25.17383331 -3.11328125 23.515625 C-3.64735596 22.56977539 -4.18143066 21.62392578 -4.73168945 20.64941406 C-6 18 -6 18 -7 13 C-3.535 6.565 -3.535 6.565 0 0 Z " fill="#A96B28" transform="translate(393,677)"/>
<path d="M0 0 C22 0 22 0 27.125 4.625 C28.43317248 6.73987885 29.72350145 8.86585398 31 11 C32.9546109 13.45284505 35.03814335 15.78441439 37.125 18.125 C41.62764579 23.2749862 45.78902766 28.58589271 50 34 C50.33 22.78 50.66 11.56 51 0 C58.26 0 65.52 0 73 0 C73 24.09 73 48.18 73 73 C52 73 52 73 45.25 67.1875 C43.609375 65.24975586 43.609375 65.24975586 42.5 63.58984375 C40.24082785 60.32881565 37.80302939 57.2903475 35.25 54.25 C34.61578125 53.45078125 33.9815625 52.6515625 33.328125 51.828125 C30.00146809 47.78701829 26.47743478 43.91211413 23 40 C22.67 50.89 22.34 61.78 22 73 C14.74 73 7.48 73 0 73 C0 48.91 0 24.82 0 0 Z " fill="#A76928" transform="translate(492,549)"/>
<path d="M0 0 C3.46155128 2.85398108 5.29471528 6.20445834 6.69140625 10.39453125 C6.69140625 12.70453125 6.69140625 15.01453125 6.69140625 17.39453125 C-0.56859375 17.39453125 -7.82859375 17.39453125 -15.30859375 17.39453125 C-15.96859375 15.41453125 -16.62859375 13.43453125 -17.30859375 11.39453125 C-22.83827316 10.68419694 -27.80842411 10.09185949 -33.30859375 11.39453125 C-33.44300153 13.8237299 -33.44300153 13.8237299 -32.30859375 16.39453125 C-26.93416983 18.75215147 -21.59525988 20.08483923 -15.87109375 21.26953125 C-5.96804525 23.48749649 1.8720007 26.62385575 7.69140625 35.39453125 C9.91049301 42.05179153 9.59189914 49.32921499 6.81640625 55.76953125 C3.08913271 62.35579302 -2.89997664 65.09305926 -9.74609375 67.70703125 C-22.97998807 70.26094068 -38.25631375 70.27476983 -50.30859375 63.39453125 C-54.70082607 59.74991294 -57.50471369 55.80617142 -59.30859375 50.39453125 C-59.30859375 47.75453125 -59.30859375 45.11453125 -59.30859375 42.39453125 C-52.04859375 42.39453125 -44.78859375 42.39453125 -37.30859375 42.39453125 C-36.31859375 44.70453125 -35.32859375 47.01453125 -34.30859375 49.39453125 C-31.12034807 50.98865409 -27.67962713 50.4962786 -24.18359375 50.45703125 C-23.42949219 50.45251953 -22.67539062 50.44800781 -21.8984375 50.44335938 C-20.03512248 50.43156624 -18.1718482 50.41363067 -16.30859375 50.39453125 C-16.80359375 47.42453125 -16.80359375 47.42453125 -17.30859375 44.39453125 C-18.05431641 44.20866455 -18.80003906 44.02279785 -19.56835938 43.83129883 C-22.98556908 42.97089803 -26.39693344 42.08916826 -29.80859375 41.20703125 C-30.98164063 40.91505859 -32.1546875 40.62308594 -33.36328125 40.32226562 C-42.62311229 37.90326482 -49.99552011 34.82167671 -56.30859375 27.39453125 C-59.07941982 21.5894555 -59.42870822 15.31157825 -57.65625 9.11328125 C-54.45676395 1.97279736 -49.22803855 -2.1166961 -42.05859375 -4.98046875 C-28.29197721 -9.12432436 -12.06995615 -8.07102118 0 0 Z " fill="#A56827" transform="translate(472.30859375,554.60546875)"/>
<path d="M0 0 C7.59 -0.0825 15.18 -0.165 23 -0.25 C25.38089844 -0.28641602 27.76179687 -0.32283203 30.21484375 -0.36035156 C32.12238669 -0.37204459 34.02993968 -0.38223496 35.9375 -0.390625 C37.39833008 -0.4213208 37.39833008 -0.4213208 38.88867188 -0.45263672 C46.70625628 -0.45660101 51.89547645 1.30941293 57.8125 6.4375 C62.97150933 12.48091093 65.48844876 18.8223627 65.25390625 26.890625 C64.4876454 33.25648439 62.04231539 39.03372681 58 44 C50.50068838 49.86902649 43.79345377 50.27760499 34.625 50.125 C31.11875 50.08375 27.6125 50.0425 24 50 C24 57.59 24 65.18 24 73 C16.08 73 8.16 73 0 73 C0 48.91 0 24.82 0 0 Z M24 18 C24 22.62 24 27.24 24 32 C31.76258406 32.83859523 31.76258406 32.83859523 38.8671875 30.63671875 C40.42487726 28.38612562 40.80499762 26.7300333 41 24 C40.29042763 21.26601865 40.29042763 21.26601865 39 19 C34.73840618 16.86920309 28.59236298 17.95497683 24 18 Z " fill="#A56827" transform="translate(621,549)"/>
<path d="M0 0 C7.92 0 15.84 0 24 0 C24 24.09 24 48.18 24 73 C16.08 73 8.16 73 0 73 C0 48.91 0 24.82 0 0 Z " fill="#A56827" transform="translate(581,549)"/>
</svg>
