<?xml version="1.0" encoding="UTF-8"?>
<svg version="1.1" xmlns="http://www.w3.org/2000/svg" width="1100" height="1100">
<path d="M0 0 C36.2557059 -0.04585583 72.51140668 -0.08105891 108.76713564 -0.10213066 C113.0550436 -0.10463184 117.3429515 -0.10722051 121.63085938 -0.10986328 C122.91123665 -0.11065021 122.91123665 -0.11065021 124.21748014 -0.11145304 C138.0081296 -0.12013715 151.79876225 -0.13589606 165.58940177 -0.15430559 C179.75758312 -0.17306028 193.92575571 -0.18412846 208.09394896 -0.18817699 C216.8246184 -0.19091054 225.55524032 -0.19951958 234.28589512 -0.21583293 C240.2865037 -0.22646869 246.28708799 -0.22958584 252.28770529 -0.22700275 C255.74102212 -0.22573163 259.19425636 -0.22757122 262.64755821 -0.23841095 C280.50859657 -0.28618126 298.1419213 -0.16237861 315.5625 4.25 C316.43616211 4.46615967 317.30982422 4.68231934 318.20996094 4.9050293 C364.20341786 16.63762721 403.98489968 46.869554 428.75 87.375 C437.21726279 101.80477141 443.67889374 116.84061669 448 133 C448.19964355 133.73589355 448.39928711 134.47178711 448.60498047 135.22998047 C457.41206156 168.77120998 455.30116098 205.18145178 444.625 238 C444.35727783 238.82419434 444.08955566 239.64838867 443.8137207 240.49755859 C441.42822511 247.45021038 438.36545176 253.26909648 435 260 C390.78 260 346.56 260 301 260 C304.34259711 257.49305217 307.23403376 255.83113287 310.9375 254 C332.12550753 242.66964172 345.73164538 223.56053408 353 201 C359.13775325 180.26599774 356.22165169 156.58042789 346.3515625 137.58154297 C336.26952654 119.31793482 319.29245835 106.11603948 299.44796848 99.88461685 C287.20017057 96.5491063 275.30360948 96.45802693 262.68139648 96.54589844 C260.38335185 96.54702916 258.08530577 96.54638868 255.78726196 96.54412842 C249.60032008 96.54298912 243.41369363 96.56637071 237.22682452 96.59442425 C230.74197699 96.61956951 224.25712082 96.6217902 217.77223206 96.62652588 C206.90449457 96.6375128 196.03687244 96.66243218 185.16918945 96.69824219 C173.98429937 96.73505869 162.79944055 96.763323 151.61450195 96.78027344 C150.57724645 96.78184978 150.57724645 96.78184978 149.51903629 96.78345796 C146.04934866 96.78867879 142.57966082 96.79373346 139.10997283 96.79870558 C110.40657296 96.84005228 81.70328924 96.91069988 53 97 C50.94226498 100.70357219 48.88457128 104.40716734 46.82691383 108.11078262 C46.12870555 109.36748735 45.4304865 110.6241861 44.73225594 111.88087845 C41.05607443 118.49737611 37.38035256 125.11412135 33.7109375 131.734375 C28.03530229 141.97121037 22.33861035 152.19447155 16.5625 162.375 C10.6453963 172.80749992 4.8478847 183.30405584 -0.9364624 193.8104248 C-1.27325012 194.42212524 -1.61003784 195.03382568 -1.95703125 195.6640625 C-2.2939801 196.27608521 -2.63092896 196.88810791 -2.97808838 197.51867676 C-8.31746372 207.21258438 -13.7042707 216.88020288 -19.08398438 226.55175781 C-20.77198287 229.58963889 -22.45748657 232.62887591 -24.14137268 235.66903687 C-25.52982002 238.17575669 -26.91917675 240.681972 -28.30856323 243.18817139 C-28.97203543 244.38555548 -29.63506835 245.58318311 -30.29763794 246.78106689 C-31.21419342 248.43801954 -32.13244878 250.09403155 -33.05078125 251.75 C-33.57325439 252.69359375 -34.09572754 253.6371875 -34.6340332 254.609375 C-35.68499329 256.44869603 -36.82492306 258.23738458 -38 260 C-39.90153694 260.36914349 -39.90153694 260.36914349 -42.26467896 260.36076355 C-43.60665344 260.36694954 -43.60665344 260.36694954 -44.97573853 260.3732605 C-45.95972626 260.36247467 -46.94371399 260.35168884 -47.95751953 260.34057617 C-48.99169006 260.34101425 -50.0258606 260.34145233 -51.09136963 260.34190369 C-54.52204025 260.33980761 -57.95222688 260.31643766 -61.3828125 260.29296875 C-63.75649753 260.28737572 -66.13018601 260.28310424 -68.50387573 260.28010559 C-74.76098133 260.26863382 -81.01787906 260.23914648 -87.27490234 260.20599365 C-93.65589587 260.17534303 -100.03692288 260.16161097 -106.41796875 260.14648438 C-118.94540135 260.11427911 -131.47268964 260.06362867 -144 260 C-142.70606955 256.7144159 -141.33106036 253.60716097 -139.63671875 250.5078125 C-139.16911133 249.65050537 -138.70150391 248.79319824 -138.21972656 247.90991211 C-137.7140918 246.99089111 -137.20845703 246.07187012 -136.6875 245.125 C-136.15479492 244.15248291 -135.62208984 243.17996582 -135.07324219 242.17797852 C-130.82605347 234.44752413 -126.4929322 226.76731946 -122.13720703 219.09765625 C-117.71925785 211.30602409 -113.38045512 203.47227268 -109.0625 195.625 C-103.48838422 185.49615021 -97.87454415 175.39107187 -92.21679688 165.30859375 C-87.98063132 157.75737679 -83.76553322 150.19470694 -79.5625 142.625 C-78.94125244 141.50625488 -78.32000488 140.38750977 -77.67993164 139.23486328 C-74.50993126 133.52484319 -71.34220174 127.81356842 -68.17578125 122.1015625 C-62.34413717 111.58665963 -56.49604535 101.0827934 -50.5625 90.625 C-45.66566626 81.9929598 -40.8477658 73.31918139 -36.0625 64.625 C-30.01424065 53.63639417 -23.92039593 42.67474816 -17.78019714 31.7371521 C-14.03940196 25.07189131 -10.30424372 18.40348284 -6.5703125 11.734375 C-5.93359619 10.59726074 -5.29687988 9.46014648 -4.64086914 8.28857422 C-3.0938596 5.52574591 -1.54690389 2.76288747 0 0 Z " fill="#792E00" transform="translate(486,238)"/>
<path d="M0 0 C34.98 0 69.96 0 106 0 C111.28 9.57 116.56 19.14 122 29 C126.85524052 37.60110134 126.85524052 37.60110134 131.72265625 46.1953125 C135.35339481 52.60899174 138.9273457 59.0538374 142.5 65.5 C147.13060919 73.8541127 151.78857878 82.19118819 156.5 90.5 C161.21142179 98.80881282 165.86929238 107.14594117 170.5 115.5 C175.15362903 123.89447882 179.83376818 132.2725968 184.5625 140.625 C185.07828613 141.54007324 185.59407227 142.45514648 186.12548828 143.39794922 C188.70580606 147.97174863 191.30395814 152.53341506 193.94596863 157.07192993 C195.59878556 159.91729639 197.2346112 162.77245544 198.875 165.625 C199.50092041 166.6867041 200.12684082 167.7484082 200.77172852 168.84228516 C201.33947998 169.83534668 201.90723145 170.8284082 202.4921875 171.8515625 C203.00120605 172.72635254 203.51022461 173.60114258 204.03466797 174.50244141 C205.2230784 177.57716035 205.03042936 178.89188369 204 182 C203.10386972 183.88316732 202.13348395 185.73183786 201.11328125 187.55078125 C200.51185303 188.62924316 199.9104248 189.70770508 199.29077148 190.81884766 C198.63161713 191.98355098 197.97218608 193.14809776 197.3125 194.3125 C196.63122715 195.52632536 195.95032422 196.74035841 195.26977539 197.95458984 C190.35361952 206.702885 185.31773384 215.38019624 180.22875977 224.02905273 C175.15973489 232.66145868 170.2733159 241.38985864 165.44116211 250.15673828 C164.88823486 251.15431152 164.33530762 252.15188477 163.765625 253.1796875 C163.27868164 254.06382324 162.79173828 254.94795898 162.29003906 255.85888672 C161 258 161 258 159 260 C155.953125 260.51171875 155.953125 260.51171875 152.25 260.6875 C151.03828125 260.77386719 149.8265625 260.86023438 148.578125 260.94921875 C143.84280598 259.69301512 142.84892691 257.70349876 140.42529297 253.60571289 C139.95494629 252.74582764 139.48459961 251.88594238 139 251 C138.54383301 250.19747803 138.08766602 249.39495605 137.61767578 248.56811523 C136.19178865 246.02014782 134.81117599 243.45146294 133.4375 240.875 C129.28906968 233.18144114 125.07152987 225.53517887 120.75 217.9375 C115.78802022 209.20261395 110.90537952 200.42624854 106.0625 191.625 C101.05352824 182.52308599 96.02163317 173.43526002 90.9375 164.375 C86.12686095 155.80212451 81.33451185 147.21944341 76.5625 138.625 C75.94125244 137.50625488 75.32000488 136.38750977 74.67993164 135.23486328 C71.50993126 129.52484319 68.34220174 123.81356842 65.17578125 118.1015625 C59.34413717 107.58665963 53.49604535 97.0827934 47.5625 86.625 C42.31744749 77.37912673 37.16659791 68.08323642 32.04193115 58.77035522 C27.29226238 50.13944319 22.51006033 41.52799847 17.6875 32.9375 C13.31122525 25.1371523 8.94797424 17.33003928 4.625 9.5 C3.91863403 8.22564087 3.91863403 8.22564087 3.19799805 6.92553711 C2.77429932 6.15604736 2.35060059 5.38655762 1.9140625 4.59375 C1.5423291 3.92021484 1.1705957 3.24667969 0.78759766 2.55273438 C0 1 0 1 0 0 Z " fill="#792E00" transform="translate(134,238)"/>
<path d="M0 0 C9.47535845 -0.20927813 18.94991195 -0.3688165 28.42708397 -0.46630955 C32.82868923 -0.51312201 37.22870438 -0.57652522 41.62939453 -0.67895508 C45.88300621 -0.77733276 50.13509689 -0.83067734 54.38975906 -0.85389519 C56.00614986 -0.87042205 57.62246485 -0.90269732 59.23820114 -0.95157051 C67.29205118 -1.18531593 73.52012285 -1.30370322 79.87890625 4.36499023 C81.28742386 5.87831742 82.66618827 7.42043446 84 9 C85.02443235 10.02254781 86.05688891 11.03720286 87.1015625 12.0390625 C87.93429687 12.89242187 88.76703125 13.74578125 89.625 14.625 C92.62602962 17.65956068 95.62125872 20.61342127 98.875 23.375 C102.61543197 26.5612939 106.04804038 30.00879685 109.5 33.5 C113.50912579 37.5546517 117.55864504 41.43978152 121.91015625 45.12890625 C125.27496075 48.14150691 128.40545188 51.38572042 131.57836914 54.59790039 C134.30324079 57.34341827 137.05032325 59.99277476 140 62.5 C143.52077694 65.4926604 146.7554753 68.7153265 150 72 C153.22398087 75.26382615 156.43517847 78.46830141 159.9375 81.4375 C164.2786307 85.12610166 168.21834341 89.19243757 172.22021484 93.23974609 C175.66020488 96.70370123 179.18544944 99.97117384 182.91015625 103.12890625 C186.27496075 106.14150691 189.40545188 109.38572042 192.57836914 112.59790039 C195.30324079 115.34341827 198.05032325 117.99277476 201 120.5 C205.0895362 123.97610577 208.8096054 127.78249656 212.578125 131.59765625 C215.30308001 134.34325486 218.05023473 136.99269952 221 139.5 C224.52077694 142.4926604 227.7554753 145.7153265 231 149 C234.22398087 152.26382615 237.43517847 155.46830141 240.9375 158.4375 C245.27102773 162.11964152 249.20620287 166.1768544 253.19824219 170.2199707 C256.8254416 173.87642173 260.53884666 177.34902529 264.51171875 180.6328125 C266 182 266 182 268 185 C250.05800838 185.42230907 232.11732252 185.73876652 214.17141914 185.93261909 C205.83670101 186.02506309 197.50508698 186.15084033 189.17236328 186.35791016 C181.90095512 186.53851842 174.63179559 186.65371819 167.35820663 186.69359291 C163.51282477 186.71687487 159.67386895 186.77068017 155.83057022 186.90314102 C129.42624137 187.77801011 129.42624137 187.77801011 119.76084709 178.77882195 C116.91808455 175.72900565 114.33135462 172.55216522 111.81707382 169.228405 C108.93433735 165.69310319 105.50049873 162.89883407 102 160 C100.64802803 158.70670737 99.30973643 157.3985481 98 156.0625 C97.34 155.39476562 96.68 154.72703125 96 154.0390625 C94.66666667 152.6796875 93.33333333 151.3203125 92 149.9609375 C88.77025802 146.69334698 85.51488375 143.52847667 82.03125 140.53125 C76.85685023 136.07439395 72.13749431 131.1855361 67.35546875 126.31640625 C63.36461298 122.2817751 59.28347991 118.46028262 54.98242188 114.75976562 C50.78759393 111.03608091 46.92583073 106.96344461 43 102.9609375 C39.76002463 99.68299366 36.49302931 96.50864439 33 93.5 C28.06537869 89.24967188 23.55746611 84.60741662 19 79.9609375 C15.12326519 76.0387722 11.16298162 72.30669809 6.95703125 68.73828125 C6.31121094 68.16464844 5.66539062 67.59101562 5 67 C4.10643799 66.39647705 3.21287598 65.7929541 2.29223633 65.17114258 C-1.479956 59.95258829 -0.61164466 54.18318912 -0.48828125 47.94921875 C-0.47894836 46.56632264 -0.47183449 45.18340993 -0.46684265 43.80049133 C-0.44780948 40.17180225 -0.3987432 36.54412396 -0.34332275 32.91583252 C-0.2920491 29.20900139 -0.26931147 25.50200589 -0.24414062 21.79492188 C-0.19061852 14.52948856 -0.1053533 7.26488625 0 0 Z " fill="#792E00" transform="translate(696,678)"/>
<path d="M0 0 C34.98 0 69.96 0 106 0 C104.53715293 4.3885412 103.26157219 7.61672677 101.05078125 11.54296875 C100.4578125 12.60257813 99.86484375 13.6621875 99.25390625 14.75390625 C98.61324219 15.88699219 97.97257813 17.02007813 97.3125 18.1875 C96.63747533 19.39031903 95.96300629 20.59345002 95.2890625 21.796875 C93.88967866 24.2946693 92.487923 26.79110956 91.08447266 29.28662109 C87.86723022 35.01193788 84.68550789 40.75698796 81.5 46.5 C80.25016609 48.75009227 79.00016557 51.00009199 77.75 53.25 C76.821875 54.920625 76.821875 54.920625 75.875 56.625 C64 78 52.125 99.375 40.25 120.75 C39.63084717 121.86455566 39.01169434 122.97911133 38.3737793 124.12744141 C37.12812487 126.36945707 35.88219544 128.61131995 34.63598633 130.85302734 C31.77237162 136.00491181 28.91099098 141.15797943 26.06039429 146.31707764 C25.07483172 148.10045332 24.08833058 149.88330672 23.1015625 151.66601562 C21.88228202 153.86942964 20.66465418 156.07375955 19.44921875 158.27929688 C18.32303901 160.31281916 17.17086367 162.33220905 15.99049377 164.33476257 C14.51068133 166.92762226 13.37397424 169.52370502 12.29771423 172.30659485 C10.24701522 177.14544437 8.06351497 181.55191877 4 185 C-3.52554414 188.03266823 -12.23026836 186.97343372 -20.1640625 186.66015625 C-22.52622805 186.62841678 -24.88850614 186.60423312 -27.25082397 186.58726501 C-33.44514319 186.52259446 -39.63259802 186.35586399 -45.82421875 186.16729736 C-52.15139888 185.99284065 -58.47969774 185.91563583 -64.80859375 185.83007812 C-77.2087326 185.64818908 -89.60379391 185.35837989 -102 185 C-100.71552634 181.03537453 -99.33297805 177.51879481 -97.26953125 173.89453125 C-96.72176025 172.92531738 -96.17398926 171.95610352 -95.60961914 170.95751953 C-95.01656982 169.91966309 -94.42352051 168.88180664 -93.8125 167.8125 C-92.53594225 165.55628151 -91.25991838 163.29976087 -89.984375 161.04296875 C-89.65550797 160.46268921 -89.32664093 159.88240967 -88.98780823 159.2845459 C-85.4752775 153.08547745 -82.01734606 146.85637035 -78.5625 140.625 C-77.30473095 138.35935088 -76.04691821 136.09372601 -74.7890625 133.828125 C-73.52598696 131.55211369 -72.26296619 129.27607199 -71 127 C-63.11434725 112.78876182 -55.21526713 98.58555676 -47.26708984 84.40917969 C-43.01604961 76.82340539 -38.78415882 69.22716211 -34.5625 61.625 C-33.94205811 60.50786621 -33.32161621 59.39073242 -32.68237305 58.23974609 C-29.49857223 52.50535928 -26.31801736 46.76919009 -23.140625 41.03125 C-22.49281659 39.86243451 -21.84494912 38.69365175 -21.19702148 37.52490234 C-20.005265 35.37483099 -18.81453874 33.224188 -17.62524414 31.07275391 C-11.84917782 20.65575396 -5.91156516 10.34523903 0 0 Z " fill="#792E00" transform="translate(241,678)"/>
<path d="M0 0 C2.03163165 0.01866025 4.06330842 0.03289063 6.09500122 0.0428772 C11.43258758 0.08099002 16.7674357 0.17915346 22.10394287 0.28991699 C27.55329339 0.39236937 33.00308819 0.43791872 38.453125 0.48828125 C49.13922146 0.5954055 59.82328896 0.76598721 70.5078125 0.9765625 C77.19954088 12.63786562 83.85682845 24.31186433 90.3203125 36.1015625 C91.68798773 38.58898994 93.05695972 41.07570323 94.42578125 43.5625 C94.76613403 44.18120972 95.10648682 44.79991943 95.45715332 45.43737793 C104.3083433 61.52345364 113.26206701 77.55282263 122.2409668 93.56787109 C128.39633387 104.55163768 134.50722469 115.55999669 140.61669922 126.56933594 C143.74526303 132.2060822 146.87670741 137.84122761 150.0078125 143.4765625 C150.9205896 145.11975464 150.9205896 145.11975464 151.85180664 146.79614258 C154.79332439 152.09149518 157.73546579 157.38649899 160.67950439 162.68045044 C162.07732158 165.19407466 163.47483047 167.70787021 164.87231445 170.22167969 C165.54159328 171.42537903 166.21102484 172.62899347 166.88061523 173.83251953 C167.80620777 175.49620739 168.73124262 177.16020548 169.65625 178.82421875 C170.18395996 179.77304932 170.71166992 180.72187988 171.25537109 181.69946289 C172.03191225 183.11131462 172.78720977 184.53535704 173.5078125 185.9765625 C159.8608978 186.37110094 146.2153463 186.67282099 132.56388283 186.85736942 C126.22396573 186.94596656 119.88795887 187.06601875 113.55029297 187.2590332 C107.42910055 187.44428007 101.31165722 187.54548963 95.18787766 187.58947563 C92.85661125 187.62079992 90.52554225 187.68198338 88.19588089 187.77397346 C70.42694818 188.44745505 70.42694818 188.44745505 65.57497978 184.34052277 C62.2986555 180.32857055 60.23448918 175.91678012 58.37458897 171.11251831 C57.05733471 167.86647161 55.32171508 164.94682529 53.55859375 161.921875 C52.31017082 159.6497157 51.06411751 157.37625298 49.8203125 155.1015625 C48.78504308 153.21570294 47.74878732 151.33038751 46.71247864 149.44509888 C46.00988465 148.16682665 45.30756203 146.88840522 44.60551453 145.60983276 C41.07332692 139.17859671 37.51176694 132.76386181 33.9453125 126.3515625 C33.33155762 125.24780273 32.71780273 124.14404297 32.08544922 123.00683594 C30.84742835 120.78054467 29.60931005 118.55430758 28.37109375 116.328125 C26.48802379 112.94096772 24.60698077 109.55269253 22.7265625 106.1640625 C16.10378281 94.23092599 9.46053336 82.30972225 2.78588867 70.40551758 C-0.26818199 64.95591159 -3.31580014 59.50279587 -6.3515625 54.04296875 C-6.67411011 53.46293091 -6.99665771 52.88289307 -7.32897949 52.28527832 C-8.93360297 49.39824089 -10.53493959 46.50943224 -12.1328125 43.61865234 C-14.94402633 38.5359837 -17.77174642 33.46825173 -20.6953125 28.44921875 C-21.17258789 27.62091553 -21.64986328 26.7926123 -22.14160156 25.93920898 C-23.01179498 24.43304448 -23.89315899 22.9332515 -24.78808594 21.44165039 C-27.56803897 16.59932416 -27.56803897 16.59932416 -27.20120239 13.5874939 C-26.96722748 12.72588654 -26.73325256 11.86427917 -26.4921875 10.9765625 C-26.26457733 10.10488434 -26.03696716 9.23320618 -25.80245972 8.33511353 C-21.18776239 -2.69448122 -10.15596167 -0.27287144 0 0 Z " fill="#792E00" transform="translate(413.4921875,677.0234375)"/>
<path d="M0 0 C21 0 21 0 27.25 5.3125 C28.73681641 7.09863281 28.73681641 7.09863281 29.7265625 8.640625 C31.83886865 11.79197688 34.17104865 14.66465984 36.625 17.5625 C38.06875 19.356875 39.5125 21.15125 41 23 C45.455 28.445 45.455 28.445 50 34 C50.33 22.78 50.66 11.56 51 0 C58.26 0 65.52 0 73 0 C73 24.09 73 48.18 73 73 C52 73 52 73 45.75 67.6875 C44.26318359 65.90356445 44.26318359 65.90356445 43.2734375 64.36328125 C41.15273983 61.20031401 38.82368123 58.29586721 36.375 55.375 C35.74335937 54.57835937 35.11171875 53.78171875 34.4609375 52.9609375 C30.77466376 48.52570655 26.85801233 44.28668037 23 40 C22.67 50.89 22.34 61.78 22 73 C14.74 73 7.48 73 0 73 C0 48.91 0 24.82 0 0 Z " fill="#772D00" transform="translate(492,549)"/>
<path d="M0 0 C4.48816371 3.60351662 6.99034746 6.89675105 8.59765625 12.421875 C8.59765625 14.401875 8.59765625 16.381875 8.59765625 18.421875 C1.33765625 18.421875 -5.92234375 18.421875 -13.40234375 18.421875 C-14.06234375 16.771875 -14.72234375 15.121875 -15.40234375 13.421875 C-19.10861126 11.23268072 -22.01681716 11.29108866 -26.21484375 11.796875 C-27.19066406 11.90773438 -28.16648437 12.01859375 -29.171875 12.1328125 C-30.27595703 12.27589844 -30.27595703 12.27589844 -31.40234375 12.421875 C-31.40234375 14.401875 -31.40234375 16.381875 -31.40234375 18.421875 C-30.2421875 18.66421875 -29.08203125 18.9065625 -27.88671875 19.15625 C1.37735336 25.38318255 1.37735336 25.38318255 9.59765625 36.421875 C11.53317277 42.22842456 11.217887 48.35443915 9.47265625 54.171875 C4.79063536 62.28737787 -0.1787785 66.3364748 -9.23999023 68.95239258 C-22.80486702 71.89754986 -37.73656348 69.83078075 -49.96484375 63.609375 C-53.82293473 60.14698566 -56.74572652 55.67481283 -57.40234375 50.421875 C-57.40234375 48.111875 -57.40234375 45.801875 -57.40234375 43.421875 C-50.14234375 43.421875 -42.88234375 43.421875 -35.40234375 43.421875 C-34.41234375 45.731875 -33.42234375 48.041875 -32.40234375 50.421875 C-29.21409807 52.01599784 -25.77337713 51.52362235 -22.27734375 51.484375 C-21.52324219 51.47986328 -20.76914062 51.47535156 -19.9921875 51.47070312 C-18.12887248 51.45890999 -16.2655982 51.44097442 -14.40234375 51.421875 C-14.40234375 49.771875 -14.40234375 48.121875 -14.40234375 46.421875 C-20.54785279 43.57596813 -26.71361548 41.96241953 -33.28710938 40.40429688 C-40.57768701 38.58899592 -47.40108216 36.37163013 -52.33984375 30.421875 C-52.90574219 29.761875 -53.47164063 29.101875 -54.0546875 28.421875 C-57.22715021 23.71375642 -56.97968085 17.89832977 -56.40234375 12.421875 C-54.6064642 6.27693776 -50.87002593 1.68702796 -45.40234375 -1.578125 C-31.73192735 -7.92088304 -12.88166258 -8.4621003 0 0 Z " fill="#762D00" transform="translate(470.40234375,553.578125)"/>
<path d="M0 0 C7.425 -0.061875 14.85 -0.12375 22.5 -0.1875 C24.82869141 -0.21481201 27.15738281 -0.24212402 29.55664062 -0.27026367 C31.42317182 -0.27903378 33.2897088 -0.28667647 35.15625 -0.29296875 C36.10854492 -0.30831665 37.06083984 -0.32366455 38.04199219 -0.33947754 C44.86292773 -0.34212816 50.54225772 0.47248219 56.20703125 4.61328125 C62.9984959 11.80132778 65.17573408 18.05847182 65 28 C64.01151994 35.31895878 60.88579381 41.43102785 55 46 C48.22469541 50.06500321 42.19866768 50.51497831 34.4375 50.25 C30.993125 50.1675 27.54875 50.085 24 50 C24 57.59 24 65.18 24 73 C16.08 73 8.16 73 0 73 C0 48.91 0 24.82 0 0 Z M24 18 C24 22.62 24 27.24 24 32 C28.62 32 33.24 32 38 32 C41.2524764 26.71576465 41.2524764 26.71576465 40.875 23.3125 C39.87824511 20.67821921 39.26817858 19.66428198 37 18 C32.63769798 17.59256208 28.39034742 17.86959364 24 18 Z " fill="#762D00" transform="translate(621,549)"/>
<path d="M0 0 C7.92 0 15.84 0 24 0 C24 24.09 24 48.18 24 73 C16.08 73 8.16 73 0 73 C0 48.91 0 24.82 0 0 Z " fill="#762D00" transform="translate(581,549)"/>
</svg>
