<?xml version="1.0" encoding="UTF-8"?>
<svg version="1.1" xmlns="http://www.w3.org/2000/svg" width="988" height="997">
<path d="M0 0 C2.52851167 -0.0015267 5.05702481 -0.00829577 7.58551025 -0.01991272 C13.74144512 -0.03449488 19.89489495 0.00634504 26.05042626 0.07226414 C33.2358595 0.14653123 40.42092761 0.15508737 47.60668789 0.16047543 C60.44819247 0.17210439 73.28879016 0.23946653 86.12988281 0.33984375 C98.54919194 0.43684312 110.96802388 0.50081816 123.38769531 0.52441406 C124.53205479 0.52659877 124.53205479 0.52659877 125.69953264 0.52882762 C128.76748435 0.53461583 131.83543614 0.54035217 134.90338815 0.54597593 C147.50284231 0.57006988 160.10220354 0.62181161 172.70155478 0.67688441 C175.55805694 0.68925969 178.41455992 0.70043581 181.27107096 0.7105515 C189.43418329 0.73982919 197.5968971 0.78410015 205.75980377 0.8510685 C208.22139521 0.86923797 210.68302723 0.88269631 213.14467239 0.89079666 C233.5408989 0.96412968 253.02061981 2.74852206 272.67138672 8.40991211 C273.86505859 8.74506836 275.05873047 9.08022461 276.28857422 9.42553711 C291.30138559 14.01009456 307.51100615 21.32569408 319.67138672 31.40991211 C319.67138672 32.06991211 319.67138672 32.72991211 319.67138672 33.40991211 C320.43451172 33.69866211 321.19763672 33.98741211 321.98388672 34.28491211 C324.67138672 35.40991211 324.67138672 35.40991211 327.67138672 37.40991211 C327.67138672 38.06991211 327.67138672 38.72991211 327.67138672 39.40991211 C328.24211914 39.65612305 328.81285156 39.90233398 329.40087891 40.15600586 C332.04981481 41.61890208 333.85687218 43.3363653 335.99951172 45.47241211 C336.79873047 46.26905273 337.59794922 47.06569336 338.42138672 47.88647461 C339.65888672 49.13557617 339.65888672 49.13557617 340.92138672 50.40991211 C341.76185547 51.24264648 342.60232422 52.07538086 343.46826172 52.93334961 C344.26232422 53.72999023 345.05638672 54.52663086 345.87451172 55.34741211 C346.96747559 56.44375977 346.96747559 56.44375977 348.08251953 57.56225586 C349.67138672 59.40991211 349.67138672 59.40991211 349.67138672 61.40991211 C350.33138672 61.40991211 350.99138672 61.40991211 351.67138672 61.40991211 C352.90478516 62.81176758 352.90478516 62.81176758 354.28076172 64.77709961 C355.03728027 65.85024414 355.03728027 65.85024414 355.80908203 66.94506836 C356.34114258 67.7172168 356.87320313 68.48936523 357.42138672 69.28491211 C358.23881348 70.4624707 358.23881348 70.4624707 359.07275391 71.66381836 C374.08673333 93.43363873 382.83227008 116.25420379 386.67138672 142.40991211 C386.8426709 143.50537354 387.01395508 144.60083496 387.19042969 145.72949219 C391.2432988 176.74319872 385.11673628 208.01403543 372.67138672 236.40991211 C371.67138672 237.40991211 371.67138672 237.40991211 369.67425442 237.53295994 C368.79025495 237.53203815 367.90625547 237.53111635 366.99546814 237.53016663 C365.47885841 237.53222862 365.47885841 237.53222862 363.93161011 237.53433228 C362.25387009 237.52893936 362.25387009 237.52893936 360.54223633 237.5234375 C359.37166183 237.52358353 358.20108734 237.52372955 356.99504089 237.52388 C353.77617729 237.52330106 350.55735668 237.51827202 347.33850169 237.51130605 C343.97791272 237.50507168 340.61732299 237.50446864 337.25672913 237.50328064 C330.8889633 237.50016757 324.52121456 237.49195451 318.15345627 237.48193115 C310.90568943 237.47076926 303.65792179 237.46525937 296.4101485 237.46023571 C281.49721837 237.44977188 266.58430425 237.43217291 251.67138672 237.40991211 C254.76798962 234.8927005 257.72390502 232.74197076 261.23388672 230.84741211 C271.03432873 225.05491206 279.21371755 216.7298995 285.67138672 207.40991211 C286.10708984 206.82467773 286.54279297 206.23944336 286.99169922 205.63647461 C297.73766764 190.1595767 300.91501697 169.47047998 298.35058594 151.11352539 C296.89635242 143.26631876 294.3603561 135.90193617 290.81982422 128.74194336 C289.63707254 126.34023332 288.63772107 123.90553705 287.67138672 121.40991211 C287.01138672 121.40991211 286.35138672 121.40991211 285.67138672 121.40991211 C285.01138672 119.42991211 284.35138672 117.44991211 283.67138672 115.40991211 C283.01138672 115.40991211 282.35138672 115.40991211 281.67138672 115.40991211 C280.23388672 113.91381836 280.23388672 113.91381836 278.67138672 111.97241211 C276.52613628 109.25802973 276.52613628 109.25802973 273.67138672 107.40991211 C273.67138672 106.74991211 273.67138672 106.08991211 273.67138672 105.40991211 C273.16220703 105.17014648 272.65302734 104.93038086 272.12841797 104.68334961 C270.14877102 103.65733227 268.21871462 102.53594678 266.30810547 101.38647461 C265.66679688 101.00491211 265.02548828 100.62334961 264.36474609 100.23022461 C263.06258456 99.45425299 261.76773504 98.66582678 260.48193359 97.86303711 C246.91243562 89.91080428 232.37923579 89.82227366 217.14038086 89.86401367 C215.01010896 89.85526223 212.87984362 89.84477102 210.74958801 89.83268738 C205.01093682 89.80499938 199.27250195 89.80141888 193.53379369 89.80240726 C187.51999354 89.7992633 181.5062887 89.77361436 175.49253845 89.75042725 C164.1245137 89.70997696 152.75654616 89.68955237 141.38846058 89.67645335 C128.43788476 89.66054606 115.48740578 89.62211477 102.53688633 89.58186007 C75.91508569 89.49961132 49.29328786 89.44542544 22.67138672 89.40991211 C22.36813477 90.35141113 22.06488281 91.29291016 21.75244141 92.26293945 C20.74222583 95.20369797 19.58725482 97.4286346 17.92138672 100.03491211 C15.67675236 103.66753293 13.66914721 107.32228815 11.79638672 111.15991211 C9.34331165 116.15503388 6.68268221 120.98701738 3.89868164 125.8046875 C1.2566784 130.37773932 -1.33152207 134.97773842 -3.89111328 139.59741211 C-4.29885986 140.33314453 -4.70660645 141.06887695 -5.12670898 141.8269043 C-6.02260619 143.44384857 -6.91834967 145.06087801 -7.81396484 146.67797852 C-9.51152791 149.73983065 -11.21277741 152.79961684 -12.91455078 155.85913086 C-18.61751055 166.11335779 -24.3155648 176.36979472 -29.95361328 186.65991211 C-34.36257886 194.70220713 -38.8566204 202.69460065 -43.38769531 210.66870117 C-48.42933935 219.54996463 -53.36796796 228.48075054 -58.32861328 237.40991211 C-90.33861328 237.40991211 -122.34861328 237.40991211 -155.32861328 237.40991211 C-146.21846587 219.18961729 -146.21846587 219.18961729 -141.51611328 211.15991211 C-140.47961313 209.36771992 -139.4444906 207.57473039 -138.41064453 205.78100586 C-137.89711426 204.89010254 -137.38358398 203.99919922 -136.85449219 203.08129883 C-134.42159444 198.82197609 -132.05907678 194.52491356 -129.70361328 190.22241211 C-129.24994385 189.39427002 -128.79627441 188.56612793 -128.32885742 187.71289062 C-127.42949844 186.07066016 -126.53032552 184.42832779 -125.63134766 182.78588867 C-120.38033142 173.2088853 -115.05249919 163.67584663 -109.65893555 154.1784668 C-103.94056602 144.10652214 -98.3552592 133.97280348 -92.86157227 123.77661133 C-89.39762051 117.35632402 -85.85883719 110.99364724 -82.21142578 104.67553711 C-75.53384502 93.09367504 -69.07881928 81.38296532 -62.59472656 69.69213867 C-60.50782111 65.93039703 -58.41808644 62.17022791 -56.32861328 58.40991211 C-55.49526613 56.90991979 -54.6619328 55.40991979 -53.82861328 53.90991211 C-52.16194661 50.90991211 -50.49527995 47.90991211 -48.82861328 44.90991211 C-48.41587158 44.16692871 -48.00312988 43.42394531 -47.57788086 42.65844727 C-46.74715486 41.16323788 -45.91626377 39.6681202 -45.08520508 38.1730957 C-42.96059453 34.35054674 -40.83915586 30.52629133 -38.72314453 26.69897461 C-38.29066406 25.91780273 -37.85818359 25.13663086 -37.41259766 24.33178711 C-36.60420231 22.87146003 -35.79679743 21.41058388 -34.99072266 19.94897461 C-34.23618916 18.58694491 -33.45632016 17.2386106 -32.65052605 15.90626621 C-31.2206621 13.39605124 -31.2206621 13.39605124 -30.40661812 10.39731503 C-25.27883294 -3.02031721 -12.13076726 -0.2019866 0 0 Z " fill="#6E3310" transform="translate(466.32861328125,181.590087890625)"/>
<path d="M0 0 C31.68 0 63.36 0 96 0 C101.52424627 9.82088226 107.03737652 19.64515656 112.5 29.5 C116.92938836 37.48422123 121.36955127 45.46190704 125.85717773 53.41357422 C128.61547265 58.3046117 131.34111581 63.21334627 134.0625 68.125 C137.00680603 73.43734441 139.97676539 78.73215056 143 84 C145.93962922 89.12234792 148.8268784 94.27065845 151.6875 99.4375 C155.67897703 106.64162927 159.70318252 113.82680631 163.75 121 C164.28069092 121.94286865 164.81138184 122.8857373 165.3581543 123.85717773 C168.38221263 129.20983181 171.47781652 134.50871402 174.67529297 139.75976562 C180 148.76446738 180 148.76446738 180 152 C180.66 152 181.32 152 182 152 C182.7104474 153.17391524 183.39226744 154.36516929 184.0625 155.5625 C184.44535156 156.22378906 184.82820312 156.88507813 185.22265625 157.56640625 C186.5703111 161.78544631 185.82105754 165.24141876 183.9621582 169.22290039 C182.57597648 171.77131611 181.1169794 174.26206154 179.625 176.75 C178.81470337 178.13372803 178.81470337 178.13372803 177.98803711 179.54541016 C176.87175732 181.45060157 175.75088606 183.35311004 174.62548828 185.25292969 C172.24385438 189.27788382 169.90353785 193.32635105 167.5625 197.375 C166.90423218 198.50796509 166.90423218 198.50796509 166.23266602 199.66381836 C161.88654955 207.1548319 157.63976672 214.70159385 153.41430664 222.26123047 C152.40087223 224.06573437 151.37718573 225.86453512 150.34130859 227.65625 C149.52707985 229.07900135 148.74031475 230.51860484 148.00634766 231.984375 C147.10546875 233.64453125 147.10546875 233.64453125 145 236 C142.10405649 236.46211865 140.09502976 236.584747 137.25 236.375 C136.55261719 236.34792969 135.85523438 236.32085937 135.13671875 236.29296875 C133.42314295 236.22254783 131.71116698 236.11492913 130 236 C129.25169922 234.55947266 129.25169922 234.55947266 128.48828125 233.08984375 C123.57891616 223.69872604 118.46381842 214.44055412 113.22851562 205.22753906 C106.97061666 194.20945051 100.83053598 183.1266275 94.68798828 172.04394531 C93.19900697 169.3588688 91.7078208 166.67504365 90.21484375 163.9921875 C86.47695348 157.27500867 82.75128126 150.55176465 79.05688477 143.81054688 C74.1790842 134.91240898 69.21977882 126.06456467 64.21020508 117.23999023 C58.82417755 107.73144231 53.55172855 98.16120107 48.29223633 88.58227539 C47.79722878 87.68184761 47.79722878 87.68184761 47.29222107 86.76322937 C46.3949841 85.13086253 45.4989628 83.49782765 44.60302734 81.86474609 C43.54177936 79.96820576 42.43794139 78.09482702 41.29150391 76.24853516 C40 74 40 74 40 72 C39.34 72 38.68 72 38 72 C37.61457031 71.04738281 37.22914063 70.09476562 36.83203125 69.11328125 C34.76675542 64.29914385 32.23110709 59.76185892 29.6875 55.1875 C29.19548096 54.29748291 28.70346191 53.40746582 28.1965332 52.49047852 C25.36781645 47.39430203 22.47720951 42.34962837 19.42504883 37.38330078 C17.96124168 34.93517925 16.58799269 32.45384667 15.23046875 29.9453125 C13.09797585 26.01644929 10.95235143 22.09558796 8.7890625 18.18359375 C7.734375 16.26822917 6.6796875 14.35286458 5.625 12.4375 C5.07972656 11.45458984 4.53445312 10.47167969 3.97265625 9.45898438 C3.45832031 8.52248047 2.94398437 7.58597656 2.4140625 6.62109375 C1.9495166 5.7798999 1.4849707 4.93870605 1.00634766 4.07202148 C0 2 0 2 0 0 Z " fill="#6E3310" transform="translate(122,183)"/>
<path d="M0 0 C8.61464981 -0.16254255 17.22865395 -0.28674381 25.84446049 -0.3626852 C29.84567169 -0.3991431 33.84583019 -0.44855124 37.84643555 -0.52807617 C41.7109497 -0.60441079 45.5744547 -0.64604625 49.43966484 -0.6641407 C50.91052571 -0.67702647 52.38133431 -0.70219132 53.85176277 -0.7401104 C65.37993346 -1.02543995 65.37993346 -1.02543995 69.43017578 1.53820801 C71.17159609 3.2700995 72.58384965 5.00036521 74 7 C75.27529263 8.14352808 76.56342383 9.27327602 77.875 10.375 C81.83370275 13.77701017 85.47875655 17.43983687 89.1171875 21.1796875 C90.87753339 23.06383898 90.87753339 23.06383898 93 24 C93 24.66 93 25.32 93 26 C93.66 26 94.32 26 95 26 C95 26.66 95 27.32 95 28 C95.66 28 96.32 28 97 28 C97 28.66 97 29.32 97 30 C97.54398438 30.21527344 98.08796875 30.43054688 98.6484375 30.65234375 C101.80929113 32.46379641 104.12763796 34.95496023 106.625 37.5625 C109.96402902 41.22714016 109.96402902 41.22714016 114 44 C114 44.66 114 45.32 114 46 C114.58571777 46.259021 115.17143555 46.51804199 115.77490234 46.78491211 C118.16484906 48.09002126 119.7071834 49.49339328 121.6015625 51.44140625 C122.58382812 52.44010742 122.58382812 52.44010742 123.5859375 53.45898438 C124.25882813 54.15314453 124.93171875 54.84730469 125.625 55.5625 C126.96911869 56.94098537 128.31537153 58.31739401 129.6640625 59.69140625 C130.25654785 60.30185791 130.8490332 60.91230957 131.45947266 61.54125977 C132.95434048 63.09810782 132.95434048 63.09810782 135 64 C135 64.66 135 65.32 135 66 C135.59474121 66.26804443 136.18948242 66.53608887 136.80224609 66.81225586 C139.01812796 68.00979699 140.42079528 69.20318983 142.1640625 71.00390625 C142.72867188 71.57947266 143.29328125 72.15503906 143.875 72.74804688 C144.4525 73.34681641 145.03 73.94558594 145.625 74.5625 C146.78160151 75.75349384 147.94035778 76.94240005 149.1015625 78.12890625 C149.61025879 78.65556885 150.11895508 79.18223145 150.64306641 79.72485352 C151.99400105 81.1164217 151.99400105 81.1164217 154 82 C154 82.66 154 83.32 154 84 C154.66 84 155.32 84 156 84 C156 84.66 156 85.32 156 86 C156.54398438 86.21527344 157.08796875 86.43054688 157.6484375 86.65234375 C160.80929113 88.46379641 163.12763796 90.95496023 165.625 93.5625 C168.96402902 97.22714016 168.96402902 97.22714016 173 100 C173 100.66 173 101.32 173 102 C173.66 102 174.32 102 175 102 C175 102.66 175 103.32 175 104 C175.54398438 104.21527344 176.08796875 104.43054688 176.6484375 104.65234375 C179.80929113 106.46379641 182.12763796 108.95496023 184.625 111.5625 C187.96402902 115.22714016 187.96402902 115.22714016 192 118 C192 118.66 192 119.32 192 120 C192.66 120 193.32 120 194 120 C194 120.66 194 121.32 194 122 C194.54914063 122.22042969 195.09828125 122.44085937 195.6640625 122.66796875 C198.72719334 124.41467045 200.95922578 126.78920987 203.375 129.3125 C206.36340728 132.38163464 209.32432265 135.39764349 212.6875 138.0625 C213.450625 138.701875 214.21375 139.34125 215 140 C215 140.66 215 141.32 215 142 C215.66 142 216.32 142 217 142 C217 142.66 217 143.32 217 144 C217.54398438 144.21527344 218.08796875 144.43054688 218.6484375 144.65234375 C221.80929113 146.46379641 224.12763796 148.95496023 226.625 151.5625 C229.96402902 155.22714016 229.96402902 155.22714016 234 158 C234 158.66 234 159.32 234 160 C234.556875 160.20625 235.11375 160.4125 235.6875 160.625 C238.90959519 162.54084039 240.64504586 165.08657415 243 168 C226.49307794 168.04669202 209.98617725 168.08197509 193.47920513 168.10362434 C185.81497174 168.11394302 178.15077935 168.12801462 170.48657227 168.15087891 C163.8075315 168.17079471 157.12852042 168.18371213 150.44945079 168.18817699 C146.91195394 168.19078745 143.37454203 168.19693537 139.83707237 168.21146011 C135.89095831 168.22753176 131.94492785 168.22798085 127.9987793 168.22705078 C126.82202133 168.23424133 125.64526337 168.24143188 124.43284607 168.24884033 C123.36012451 168.246091 122.28740295 168.24334167 121.18217468 168.24050903 C120.24839839 168.24235262 119.3146221 168.24419621 118.35254955 168.24609566 C116 168 116 168 113 166 C113 165.34 113 164.68 113 164 C112.34 164 111.68 164 111 164 C111 163.34 111 162.68 111 162 C110.34 162 109.68 162 109 162 C109 161.34 109 160.68 109 160 C108.40525879 159.73195557 107.81051758 159.46391113 107.19775391 159.18774414 C104.98187204 157.99020301 103.57920472 156.79681017 101.8359375 154.99609375 C100.98902344 154.13274414 100.98902344 154.13274414 100.125 153.25195312 C99.5475 152.65318359 98.97 152.05441406 98.375 151.4375 C97.21839849 150.24650616 96.05964222 149.05759995 94.8984375 147.87109375 C94.38974121 147.34443115 93.88104492 146.81776855 93.35693359 146.27514648 C92.00599895 144.8835783 92.00599895 144.8835783 90 144 C90 143.34 90 142.68 90 142 C89.34 142 88.68 142 88 142 C88 141.34 88 140.68 88 140 C87.34 140 86.68 140 86 140 C86 139.34 86 138.68 86 138 C85.41428223 137.740979 84.82856445 137.48195801 84.22509766 137.21508789 C81.83515094 135.90997874 80.2928166 134.50660672 78.3984375 132.55859375 C77.41617188 131.55989258 77.41617188 131.55989258 76.4140625 130.54101562 C75.74117187 129.84685547 75.06828125 129.15269531 74.375 128.4375 C73.03088131 127.05901463 71.68462847 125.68260599 70.3359375 124.30859375 C69.74345215 123.69814209 69.1509668 123.08769043 68.54052734 122.45874023 C67.04565952 120.90189218 67.04565952 120.90189218 65 120 C65 119.34 65 118.68 65 118 C64.34 118 63.68 118 63 118 C63 117.34 63 116.68 63 116 C62.34 116 61.68 116 61 116 C61 115.34 61 114.68 61 114 C60.11924805 113.60929321 60.11924805 113.60929321 59.22070312 113.21069336 C56.85820089 111.92269329 55.33950406 110.55378373 53.46875 108.62890625 C52.82292969 107.97212891 52.17710937 107.31535156 51.51171875 106.63867188 C50.84785156 105.95353516 50.18398438 105.26839844 49.5 104.5625 C48.17944577 103.2073293 46.85659972 101.85438735 45.53125 100.50390625 C44.94923828 99.90392822 44.36722656 99.3039502 43.76757812 98.68579102 C42.0010301 96.9229519 42.0010301 96.9229519 39.77929688 95.40600586 C39.19212891 94.94202393 38.60496094 94.47804199 38 94 C38 93.34 38 92.68 38 92 C37.12142334 91.61146851 37.12142334 91.61146851 36.22509766 91.21508789 C33.83515094 89.90997874 32.2928166 88.50660672 30.3984375 86.55859375 C29.74359375 85.89279297 29.08875 85.22699219 28.4140625 84.54101562 C27.74117187 83.84685547 27.06828125 83.15269531 26.375 82.4375 C25.03088131 81.05901463 23.68462847 79.68260599 22.3359375 78.30859375 C21.74345215 77.69814209 21.1509668 77.08769043 20.54052734 76.45874023 C19.04565952 74.90189218 19.04565952 74.90189218 17 74 C17 73.34 17 72.68 17 72 C16.34 72 15.68 72 15 72 C15 71.34 15 70.68 15 70 C14.45770752 69.74839111 13.91541504 69.49678223 13.35668945 69.23754883 C7.58244432 66.20536727 2.75914115 63.05953235 0 57 C-1.76672215 48.10932051 -1.09167239 38.828232 -0.75531006 29.82165527 C-0.64174229 26.45673747 -0.59232777 23.09090068 -0.53710938 19.72460938 C-0.41642658 13.14735835 -0.23284324 6.57418551 0 0 Z " fill="#6F3310" transform="translate(633,583)"/>
<path d="M0 0 C32.01 0 64.02 0 97 0 C95.55365735 4.33902796 94.57115367 7.01234003 92.25 10.6875 C90.11284159 14.12695224 88.09496224 17.5986803 86.17578125 21.1640625 C83.16729429 26.71343213 80.06164233 32.20267913 76.9375 37.6875 C71.73750596 46.84932266 66.6740855 56.07785871 61.67456055 65.3503418 C55.05011871 77.63276295 48.24236755 89.81017447 41.39135742 101.96728516 C37.3179963 109.1998891 33.29218003 116.45877044 29.26611328 123.71777344 C27.59408245 126.73168477 25.92020917 129.74457041 24.24609375 132.75732422 C23.41905009 134.24580836 22.59222518 135.73441407 21.765625 137.22314453 C19.59900581 141.12493863 17.42894643 145.02476806 15.25390625 148.921875 C14.80337891 149.73011719 14.35285156 150.53835938 13.88867188 151.37109375 C13.03035855 152.91074858 12.17104891 154.4498486 11.31054688 155.98828125 C10.92060547 156.68824219 10.53066406 157.38820313 10.12890625 158.109375 C9.78931885 158.71749023 9.44973145 159.32560547 9.09985352 159.95214844 C7.67534782 162.60448002 6.3464085 165.30718299 5 168 C-27.34 168 -59.68 168 -93 168 C-88.49839936 158.99679871 -84.15164098 150.3372193 -79.12890625 141.6875 C-76.71633968 137.53157902 -74.38917536 133.32943713 -72.0625 129.125 C-68.52860134 122.7456595 -64.97059397 116.38077434 -61.38818359 110.02856445 C-59.04845699 105.87557527 -56.72893106 101.71193959 -54.42089844 97.54125977 C-49.78172457 89.15823953 -45.06544907 80.82265738 -40.28588867 72.51879883 C-35.10949899 63.50640583 -30.1898635 54.35803331 -25.25683594 45.2109375 C-19.96006621 35.39717385 -14.57303732 25.65993136 -9 16 C-6.03 10.72 -3.06 5.44 0 0 Z " fill="#6F3310" transform="translate(219,583)"/>
<path d="M0 0 C27.39 0 54.78 0 83 0 C88.96511075 10.60464134 94.92281621 21.21274971 100.84765625 31.83984375 C104.30687482 38.02878582 107.83018518 44.17479249 111.42358398 50.28686523 C114.65680034 55.85148246 117.69360912 61.52267351 120.6953125 67.21484375 C125.20102185 75.74552777 129.89262879 84.1558803 134.65844727 92.54394531 C139.16847721 100.49535069 143.59521373 108.49006396 148 116.5 C161.15021539 140.42287404 161.15021539 140.42287404 174.92578125 163.98828125 C176 166 176 166 176 168 C143.99 168 111.98 168 79 168 C73.555 157.605 73.555 157.605 68 147 C65.83549949 143.08588134 63.66463406 139.18930854 61.4375 135.3125 C60.34854464 133.39867283 59.26000876 131.48460692 58.171875 129.5703125 C57.64400391 128.64379883 57.11613281 127.71728516 56.57226562 126.76269531 C54.09639891 122.4122438 51.63509057 118.05391633 49.1875 113.6875 C48.76073975 112.9344458 48.33397949 112.1813916 47.89428711 111.40551758 C45 106.22955836 45 106.22955836 45 104 C44.34 104 43.68 104 43 104 C42.62617188 103.06027344 42.25234375 102.12054687 41.8671875 101.15234375 C39.68519023 96.0690794 36.88272346 91.34982298 34.125 86.5625 C28.77429674 77.19630231 23.57481664 67.75986386 18.49072266 58.24633789 C15.64391324 52.94233547 12.67360875 47.75109113 9.55102539 42.60522461 C6.63345935 37.70465051 3.91406467 32.69604696 1.1875 27.6875 C0.60291016 26.62982422 0.01832031 25.57214844 -0.58398438 24.48242188 C-1.14021484 23.46083984 -1.69644531 22.43925781 -2.26953125 21.38671875 C-2.77073486 20.47108154 -3.27193848 19.55544434 -3.78833008 18.61206055 C-5 16 -5 16 -6 11 C-4.02 7.37 -2.04 3.74 0 0 Z " fill="#6F3310" transform="translate(357,583)"/>
<path d="M0 0 C16.98602836 -1.22177227 16.98602836 -1.22177227 21.8203125 1.7109375 C26 6.55517782 26 6.55517782 26 10 C26.66 10 27.32 10 28 10 C29.23476725 11.40162769 30.46148688 12.81212043 31.625 14.2734375 C32.97851284 15.97301896 34.389418 17.60860428 35.8125 19.25 C38 22 38 22 38 24 C38.66 24 39.32 24 40 24 C41.35386936 25.65002828 42.68678142 27.3174387 44 29 C44.66 29.33 45.32 29.66 46 30 C46 20.1 46 10.2 46 0 C52.6 0 59.2 0 66 0 C66 21.78 66 43.56 66 66 C59.4 66 52.8 66 46 66 C45.34 64.68 44.68 63.36 44 62 C43.34 62 42.68 62 42 62 C40.58561594 60.42713316 39.24395599 58.78860004 37.9375 57.125 C32.01596646 49.72546695 25.81420768 42.59439453 19 36 C19.16371094 37.0828125 19.32742188 38.165625 19.49609375 39.28125 C20.17178024 44.68674192 20.1088986 50.06065617 20.0625 55.5 C20.05798828 56.51320313 20.05347656 57.52640625 20.04882812 58.5703125 C20.0371461 61.04690093 20.01921455 63.52345856 20 66 C13.4 66 6.8 66 0 66 C-1.10590462 53.88771133 -1.15304793 41.84619027 -1.13037109 29.69140625 C-1.1249471 26.21610278 -1.13037696 22.74092487 -1.13671875 19.265625 C-1.13605904 17.05729138 -1.13478012 14.84895784 -1.1328125 12.640625 C-1.13483673 11.60117737 -1.13686096 10.56172974 -1.13894653 9.49078369 C-1.13579437 8.53508484 -1.13264221 7.57938599 -1.12939453 6.59472656 C-1.12859894 5.75315002 -1.12780334 4.91157349 -1.12698364 4.04449463 C-1 2 -1 2 0 0 Z " fill="#6D3310" transform="translate(448,465)"/>
<path d="M0 0 C4.11396053 4.04520353 4.84863268 8.84179552 5.40234375 14.37890625 C1.00182447 15.50060724 -3.2226263 15.46702242 -7.72265625 15.25390625 C-8.79580078 15.2384375 -8.79580078 15.2384375 -9.890625 15.22265625 C-11.98046875 15.12109375 -11.98046875 15.12109375 -15.59765625 14.37890625 C-16.64676418 12.74270629 -17.64968051 11.07570317 -18.59765625 9.37890625 C-21.54535695 8.55961909 -21.54535695 8.55961909 -24.78515625 8.56640625 C-26.41517578 8.49486328 -26.41517578 8.49486328 -28.078125 8.421875 C-28.90957031 8.40769531 -29.74101562 8.39351563 -30.59765625 8.37890625 C-30.59765625 10.35890625 -30.59765625 12.33890625 -30.59765625 14.37890625 C-29.41429687 14.70503906 -28.2309375 15.03117187 -27.01171875 15.3671875 C-12.71402959 19.31591464 -12.71402959 19.31591464 -6.72265625 21.06640625 C-6.00335938 21.27652344 -5.2840625 21.48664063 -4.54296875 21.703125 C0.37096211 23.41017327 2.77727935 25.35422249 5.4140625 29.8359375 C7.63673355 35.55514246 7.3815559 41.96533987 5.703125 47.81640625 C3.28046643 53.21372155 -0.34051476 56.98880479 -5.78515625 59.3125 C-19.24097914 63.81933812 -34.32739363 63.55718253 -47.12109375 57.18359375 C-47.60835938 56.91804687 -48.095625 56.6525 -48.59765625 56.37890625 C-48.59765625 55.71890625 -48.59765625 55.05890625 -48.59765625 54.37890625 C-49.25765625 54.37890625 -49.91765625 54.37890625 -50.59765625 54.37890625 C-54.14550596 48.99990831 -55.30653456 44.79813956 -55.59765625 38.37890625 C-49.11679875 37.27578157 -40.85244124 35.91490004 -34.59765625 38.37890625 C-33.88037847 40.02442587 -33.21440397 41.69312914 -32.59765625 43.37890625 C-29.72406897 45.23568572 -27.48339009 45.63017863 -24.09765625 45.56640625 C-22.9684375 45.55673828 -22.9684375 45.55673828 -21.81640625 45.546875 C-19.63775482 45.38194188 -17.69560814 44.97491531 -15.59765625 44.37890625 C-16.08140669 41.8812359 -16.08140669 41.8812359 -17.59765625 39.37890625 C-20.78871149 37.99659372 -20.78871149 37.99659372 -24.59765625 37.25390625 C-25.96115259 36.92928754 -27.32443391 36.60376435 -28.6875 36.27734375 C-29.35507324 36.12491211 -30.02264648 35.97248047 -30.71044922 35.81542969 C-39.26510743 33.8366808 -46.80788824 31.40933883 -52.59765625 24.37890625 C-54.91565214 19.27931529 -55.65848386 13.8146189 -53.9921875 8.41796875 C-52.78726576 5.51881695 -51.33932232 2.99140536 -49.59765625 0.37890625 C-48.93765625 0.37890625 -48.27765625 0.37890625 -47.59765625 0.37890625 C-47.59765625 -0.28109375 -47.59765625 -0.94109375 -47.59765625 -1.62109375 C-33.16223675 -9.13042814 -13.46462408 -10.61329192 0 0 Z " fill="#6B3211" transform="translate(430.59765625,470.62109375)"/>
<path d="M0 0 C7.074375 -0.12375 14.14875 -0.2475 21.4375 -0.375 C23.65267334 -0.42962402 25.86784668 -0.48424805 28.15014648 -0.54052734 C29.93210682 -0.5580727 31.71409145 -0.57335688 33.49609375 -0.5859375 C34.40008911 -0.6166333 35.30408447 -0.6473291 36.23547363 -0.67895508 C43.24448841 -0.68465115 47.7164878 1.40553129 53 6 C58.30340219 12.09310899 58.41350469 18.47994183 58.30078125 26.234375 C57.90980118 31.12924234 56.6581083 33.92977166 54 38 C53.34 38 52.68 38 52 38 C52 38.66 52 39.32 52 40 C46.64563868 43.19202309 42.74124982 45.01899494 36.453125 45.31640625 C35.60878906 45.35830078 34.76445313 45.40019531 33.89453125 45.44335938 C33.02183594 45.48267578 32.14914062 45.52199219 31.25 45.5625 C30.36183594 45.60568359 29.47367188 45.64886719 28.55859375 45.69335938 C26.37254037 45.79913615 24.18637911 45.90122546 22 46 C22.01160156 47.19238281 22.02320313 48.38476562 22.03515625 49.61328125 C22.04453592 51.17968594 22.05363593 52.74609231 22.0625 54.3125 C22.07087891 55.09818359 22.07925781 55.88386719 22.08789062 56.69335938 C22.09272461 57.8293457 22.09272461 57.8293457 22.09765625 58.98828125 C22.10551147 60.03302612 22.10551147 60.03302612 22.11352539 61.09887695 C22 63 22 63 21 66 C14.07 66 7.14 66 0 66 C0 44.22 0 22.44 0 0 Z M21 17 C20.90148829 18.83115883 20.87027371 20.66619933 20.875 22.5 C20.87242187 23.5003125 20.86984375 24.500625 20.8671875 25.53125 C20.72129618 27.94399622 20.72129618 27.94399622 22 29 C23.7872057 29.15135944 25.58161876 29.22175778 27.375 29.25 C28.84066406 29.28867187 28.84066406 29.28867187 30.3359375 29.328125 C33.00615633 29.21274582 33.00615633 29.21274582 34.83203125 27.703125 C36.76533128 24.88399853 36.29486807 22.30252234 36 19 C35.34 18.01 34.68 17.02 34 16 C31.13948767 15.59680833 31.13948767 15.59680833 27.9375 15.75 C26.85339844 15.76546875 25.76929688 15.7809375 24.65234375 15.796875 C22.07848292 15.70450112 22.07848292 15.70450112 21 17 Z " fill="#6D3311" transform="translate(565,465)"/>
<path d="M0 0 C7.26 0 14.52 0 22 0 C22 21.78 22 43.56 22 66 C14.74 66 7.48 66 0 66 C0 44.22 0 22.44 0 0 Z " fill="#6E3310" transform="translate(528,465)"/>
<path d="M0 0 C31.68 0 63.36 0 96 0 C96.99 2.475 96.99 2.475 98 5 C97.01 4.67 96.02 4.34 95 4 C95 3.34 95 2.68 95 2 C63.98 2.33 32.96 2.66 1 3 C0.67 2.01 0.34 1.02 0 0 Z " fill="#502310" transform="translate(122,183)"/>
<path d="M0 0 C0.66 0 1.32 0 2 0 C2.15370867 8.30992392 2.3018902 16.61991995 2.4429636 24.93006706 C2.50864033 28.78855673 2.57623988 32.64699296 2.64819336 36.50537109 C2.71752741 40.22704512 2.78186342 43.9487747 2.84269524 47.67059708 C2.86682075 49.09243039 2.8927648 50.51423401 2.92053413 51.93600082 C2.95904093 53.92323016 2.99055522 55.91059131 3.02172852 57.89794922 C3.04171402 59.03046112 3.06169952 60.16297302 3.08229065 61.32980347 C3 64 3 64 2 66 C1.34 66 0.68 66 0 66 C0 44.22 0 22.44 0 0 Z " fill="#4D240C" transform="translate(528,465)"/>
<path d="M0 0 C1.33897583 0.95043374 2.67105427 1.91059147 4 2.875 C5.11375 3.67550781 5.11375 3.67550781 6.25 4.4921875 C6.8275 4.98976563 7.405 5.48734375 8 6 C8 6.66 8 7.32 8 8 C8.556875 8.20625 9.11375 8.4125 9.6875 8.625 C12.92501302 10.55000774 14.68231141 13.03850902 17 16 C13.7 16 10.4 16 7 16 C7.66 14.02 8.32 12.04 9 10 C7.68 10 6.36 10 5 10 C5 8.68 5 7.36 5 6 C4.01 6 3.02 6 2 6 C1.34 4.02 0.68 2.04 0 0 Z " fill="#602F12" transform="translate(859,735)"/>
<path d="M0 0 C0.33 0.66 0.66 1.32 1 2 C1.66 2 2.32 2 3 2 C3 3.32 3 4.64 3 6 C2.34 6 1.68 6 1 6 C1 7.32 1 8.64 1 10 C0.34 10 -0.32 10 -1 10 C-1 9.34 -1 8.68 -1 8 C-1.66 8 -2.32 8 -3 8 C-3 8.99 -3 9.98 -3 11 C-3.66 11 -4.32 11 -5 11 C-5 11.99 -5 12.98 -5 14 C-5.66 14 -6.32 14 -7 14 C-5.23570801 9.02790438 -2.6060834 4.56561939 0 0 Z " fill="#5E2F11" transform="translate(355,339)"/>
<path d="M0 0 C2 3 2 3 2 5 C1.01 5 0.02 5 -1 5 C-1.0825 5.763125 -1.165 6.52625 -1.25 7.3125 C-2.14615794 10.52373261 -3.21611025 11.29374499 -6 13 C-4.58707905 8.1725201 -2.57025846 4.2837641 0 0 Z " fill="#5B2E12" transform="translate(155,698)"/>
<path d="M0 0 C1.98 1.65 3.96 3.3 6 5 C3 6 3 6 -1 6 C-1.33 4.68 -1.66 3.36 -2 2 C-1.34 2 -0.68 2 0 2 C0 1.34 0 0.68 0 0 Z " fill="#602E0F" transform="translate(771,651)"/>
<path d="M0 0 C0.99 0 1.98 0 3 0 C3 0.66 3 1.32 3 2 C3.66 2 4.32 2 5 2 C5 2.66 5 3.32 5 4 C6.32 4 7.64 4 9 4 C9 5.65 9 7.3 9 9 C7.87105124 8.06725891 6.74699124 7.12859878 5.625 6.1875 C4.99851562 5.66542969 4.37203125 5.14335938 3.7265625 4.60546875 C2 3 2 3 0 0 Z " fill="#572C14" transform="translate(731,733)"/>
<path d="M0 0 C0.99 0 1.98 0 3 0 C3 0.66 3 1.32 3 2 C3.66 2 4.32 2 5 2 C5 2.66 5 3.32 5 4 C6.32 3.34 7.64 2.68 9 2 C9 2.66 9 3.32 9 4 C9.66 4 10.32 4 11 4 C11 4.66 11 5.32 11 6 C4.6 5.63076923 4.6 5.63076923 1.5625 2.4375 C1.046875 1.633125 0.53125 0.82875 0 0 Z " fill="#603215" transform="translate(683,687)"/>
<path d="M0 0 C0.99 0 1.98 0 3 0 C3.66 0.66 4.32 1.32 5 2 C5.99 2 6.98 2 8 2 C7.67 3.65 7.34 5.3 7 7 C5.82780457 6.21654285 4.66236332 5.42297164 3.5 4.625 C2.8503125 4.18414063 2.200625 3.74328125 1.53125 3.2890625 C1.0259375 2.86367188 0.520625 2.43828125 0 2 C0 1.34 0 0.68 0 0 Z " fill="#652E15" transform="translate(650,655)"/>
<path d="M0 0 C1 3 1 3 -0.3125 6 C-2 9 -2 9 -4 12 C-4.66 12 -5.32 12 -6 12 C-4.43358249 7.69235185 -2.31663844 3.93828536 0 0 Z " fill="#582B11" transform="translate(345,357)"/>
<path d="M0 0 C0.99 0 1.98 0 3 0 C3 0.66 3 1.32 3 2 C3.66 2 4.32 2 5 2 C5 3.65 5 5.3 5 7 C4.01 6.67 3.02 6.34 2 6 C0.8125 2.9375 0.8125 2.9375 0 0 Z " fill="#572C11" transform="translate(366,623)"/>
<path d="M0 0 C2.31 1.65 4.62 3.3 7 5 C6.67 5.66 6.34 6.32 6 7 C4.68 7 3.36 7 2 7 C2 5.68 2 4.36 2 3 C1.34 3 0.68 3 0 3 C0 2.01 0 1.02 0 0 Z " fill="#5D2F14" transform="translate(704,588)"/>
<path d="M0 0 C2.15377564 2.62198774 3.40072174 4.64404172 4 8 C2.0625 7.6875 2.0625 7.6875 0 7 C-1.04449911 3.86650268 -0.93423645 3.01031744 0 0 Z " fill="#622F12" transform="translate(262,263)"/>
<path d="M0 0 C1.32 0 2.64 0 4 0 C4.33 1.98 4.66 3.96 5 6 C4.01 6 3.02 6 2 6 C1.34 4.02 0.68 2.04 0 0 Z " fill="#5C2C14" transform="translate(240,395)"/>
<path d="M0 0 C0.8125 1.625 0.8125 1.625 1 4 C-0.46818136 6.24609835 -2.15852858 8.02378677 -4 10 C-4 5.75354935 -2.18249194 3.61475228 0 0 Z " fill="#582D12" transform="translate(411,239)"/>
<path d="M0 0 C1.14926266 0.95421808 2.29430541 1.91352045 3.4375 2.875 C4.07558594 3.40867188 4.71367188 3.94234375 5.37109375 4.4921875 C7 6 7 6 8 8 C7.01 8 6.02 8 5 8 C5 7.34 5 6.68 5 6 C4.34 6 3.68 6 3 6 C3 5.34 3 4.68 3 4 C2.01 4 1.02 4 0 4 C0 2.68 0 1.36 0 0 Z " fill="#5D2F17" transform="translate(797,223)"/>
<path d="M0 0 C0.33 0 0.66 0 1 0 C1 1.98 1 3.96 1 6 C-0.65 6.66 -2.3 7.32 -4 8 C-2.87548273 5.0280615 -1.77706209 2.66559313 0 0 Z " fill="#5B2B15" transform="translate(757,381)"/>
<path d="M0 0 C1.32 0 2.64 0 4 0 C3.39816251 2.02045442 2.72693904 4.02111039 2 6 C1.01 6.495 1.01 6.495 0 7 C0 4.69 0 2.38 0 0 Z " fill="#5C2E11" transform="translate(300,353)"/>
<path d="M0 0 C0.99 0 1.98 0 3 0 C3.33 1.98 3.66 3.96 4 6 C2.02 4.68 0.04 3.36 -2 2 C-1.34 1.34 -0.68 0.68 0 0 Z " fill="#5D2B14" transform="translate(673,675)"/>
<path d="M0 0 C0.99 0 1.98 0 3 0 C2.67 1.32 2.34 2.64 2 4 C0.02 4 -1.96 4 -4 4 C-4 3.34 -4 2.68 -4 2 C-2.68 2 -1.36 2 0 2 C0 1.34 0 0.68 0 0 Z " fill="#653117" transform="translate(406,415)"/>
<path d="M0 0 C1.65 0 3.3 0 5 0 C5.33 1.98 5.66 3.96 6 6 C5.34 6 4.68 6 4 6 C2.61061923 4.03852126 1.2739589 2.03833424 0 0 Z " fill="#562711" transform="translate(472,505)"/>
<path d="M0 0 C2.38564077 0.57584432 4.66682784 1.22227595 7 2 C7 2.66 7 3.32 7 4 C5.35 4 3.7 4 2 4 C2 3.34 2 2.68 2 2 C1.34 2 0.68 2 0 2 C0 1.34 0 0.68 0 0 Z " fill="#542811" transform="translate(425,493)"/>
<path d="M0 0 C0.99 0 1.98 0 3 0 C3 0.66 3 1.32 3 2 C3.66 2 4.32 2 5 2 C4.67 3.32 4.34 4.64 4 6 C2.62437146 4.71034824 1.29233607 3.37310707 0 2 C0 1.34 0 0.68 0 0 Z " fill="#5C2C14" transform="translate(754,303)"/>
</svg>
